<svg width="31" height="30" viewBox="0 0 31 30" fill="none" xmlns="http://www.w3.org/2000/svg">
<path fill-rule="evenodd" clip-rule="evenodd" d="M8.92723 23.1193C10.5082 24.5012 12.2404 25.6425 14.1959 26.5425C15.2435 27.0237 16.4861 26.98 17.4903 26.4256C19.1844 25.4906 20.6588 24.365 22.0841 23.1193C25.1054 20.4781 26.8672 16.8437 26.9828 13.0106L27.1178 8.54122C27.1333 8.02122 27.1184 6.87497 27.1184 6.87497C26.4399 6.7714 25.759 6.68262 25.0763 6.60872C22.9644 6.36372 20.8616 6.1206 19.0164 5.02872L17.7009 4.2506C17.1422 3.92313 16.5015 3.75 15.8483 3.75C15.1951 3.75 14.5544 3.92313 13.9957 4.2506L12.7357 4.99622C10.6258 6.24372 8.05471 6.47997 5.56632 6.70872C5.0025 6.7606 4.44257 6.81247 3.89361 6.87497C3.89361 6.87497 3.87811 8.0281 3.89361 8.5556L4.02859 13.0106C4.14419 16.8437 5.90538 20.4781 8.92723 23.1193V23.1193ZM5.17882 8.0006C5.17882 8.2006 5.18075 8.38497 5.18527 8.51935L5.31961 12.9743C5.42488 16.4556 7.02461 19.7718 9.79265 22.1918C11.2858 23.4962 12.914 24.5681 14.7507 25.4131C15.0814 25.5641 15.4446 25.6362 15.81 25.6235C16.1754 25.6108 16.5324 25.5136 16.851 25.34C18.4365 24.465 19.8341 23.4018 21.2187 22.1918C23.9868 19.7718 25.5865 16.4562 25.6918 12.9743L25.8268 8.50435C25.8306 8.36497 25.8332 8.1681 25.8332 7.9581C25.531 7.9206 25.2235 7.88497 24.9097 7.8481L24.8748 7.84435C24.1574 7.76648 23.442 7.67166 22.7293 7.55997C21.2801 7.32247 19.7637 6.9356 18.3428 6.0956L17.0273 5.31685C16.6714 5.10933 16.2638 4.99967 15.8483 4.99967C15.4328 4.99967 15.0252 5.10933 14.6693 5.31685L13.4093 6.06247C11.911 6.9481 10.2576 7.3681 8.66438 7.61622C7.67625 7.76997 6.61192 7.8681 5.6154 7.9606L5.17882 8.00122V8.0006Z" fill="url(#paint0_linear_1878_4241)"/>
<path fill-rule="evenodd" clip-rule="evenodd" d="M14.207 20.625V9.375H16.7904V20.625H14.207Z" fill="url(#paint1_linear_1878_4241)"/>
<path fill-rule="evenodd" clip-rule="evenodd" d="M21.3125 16.25H9.6875V13.75H21.3125V16.25Z" fill="url(#paint2_linear_1878_4241)"/>
<defs>
<linearGradient id="paint0_linear_1878_4241" x1="7.43699" y1="8.59599" x2="28.899" y2="14.6281" gradientUnits="userSpaceOnUse">
<stop stop-color="#1873DA"/>
<stop offset="1" stop-color="#0CB3E6"/>
</linearGradient>
<linearGradient id="paint1_linear_1878_4241" x1="14.6017" y1="11.7325" x2="17.1655" y2="11.8972" gradientUnits="userSpaceOnUse">
<stop stop-color="#1873DA"/>
<stop offset="1" stop-color="#0CB3E6"/>
</linearGradient>
<linearGradient id="paint2_linear_1878_4241" x1="11.4635" y1="14.2739" x2="15.7678" y2="19.8718" gradientUnits="userSpaceOnUse">
<stop stop-color="#1873DA"/>
<stop offset="1" stop-color="#0CB3E6"/>
</linearGradient>
</defs>
</svg>
