<svg width="42" height="40" viewBox="0 0 42 40" fill="none" xmlns="http://www.w3.org/2000/svg">
<ellipse cx="20.8038" cy="20" rx="20.8038" ry="20" fill="#EEEEEE"/>
<path d="M9.04486 19.1156C9.00025 18.9437 8.99697 18.7642 9.03528 18.5909C9.07358 18.4175 9.15245 18.2549 9.26592 18.1152C9.37938 17.9755 9.52445 17.8625 9.69011 17.7848C9.85577 17.7071 10.0377 17.6667 10.222 17.6666H31.3864C31.5708 17.6667 31.7527 17.7071 31.9183 17.7848C32.084 17.8625 32.2291 17.9755 32.3425 18.1152C32.456 18.2549 32.5349 18.4175 32.5732 18.5909C32.6115 18.7642 32.6082 18.9437 32.5636 19.1156L30.3658 27.5658C30.2346 28.0706 29.9316 28.5187 29.505 28.839C29.0785 29.1592 28.5528 29.3332 28.0115 29.3333H13.5969C13.0557 29.3332 12.53 29.1592 12.1034 28.839C11.6769 28.5187 11.3739 28.0706 11.2426 27.5658L9.04486 19.1168V19.1156Z" stroke="#40C355" stroke-width="2" stroke-linejoin="round"/>
<path d="M17.1631 22.3333V24.6666M24.4445 22.3333V24.6666M13.5225 17.6666L18.3767 10.6666M28.0851 17.6666L23.2309 10.6666" stroke="#40C355" stroke-width="2" stroke-linecap="round"/>
</svg>
