<svg width="43" height="40" viewBox="0 0 43 40" fill="none" xmlns="http://www.w3.org/2000/svg">
<ellipse cx="21.6632" cy="20" rx="20.8038" ry="20" fill="#EEEEEE"/>
<path d="M14.3823 12.3V29.8H26.0324V12.3C26.0324 11.7431 25.8023 11.209 25.3926 10.8151C24.983 10.4213 24.4273 10.2 23.848 10.2H16.5667C15.9873 10.2 15.4317 10.4213 15.0221 10.8151C14.6124 11.209 14.3823 11.7431 14.3823 12.3ZM27.4887 27.7V29.8H28.2168C28.4099 29.8 28.5951 29.8738 28.7317 30.0051C28.8682 30.1363 28.9449 30.3144 28.9449 30.5C28.9449 30.6857 28.8682 30.8637 28.7317 30.995C28.5951 31.1263 28.4099 31.2 28.2168 31.2H12.1979C12.0047 31.2 11.8195 31.1263 11.683 30.995C11.5464 30.8637 11.4697 30.6857 11.4697 30.5C11.4697 30.3144 11.5464 30.1363 11.683 30.0051C11.8195 29.8738 12.0047 29.8 12.1979 29.8H12.926V12.3C12.926 11.3718 13.3096 10.4816 13.9923 9.82518C14.6751 9.1688 15.6011 8.80005 16.5667 8.80005H23.848C24.8136 8.80005 25.7396 9.1688 26.4223 9.82518C27.1051 10.4816 27.4887 11.3718 27.4887 12.3V24.9C27.4887 25.457 27.7188 25.9911 28.1285 26.385C28.5381 26.7788 29.0937 27 29.6731 27C30.2524 27 30.808 26.7788 31.2177 26.385C31.6273 25.9911 31.8575 25.457 31.8575 24.9V18.8338C31.8575 18.3795 31.7042 17.9374 31.4206 17.5738L29.8187 15.52C29.7028 15.3715 29.6531 15.1848 29.6804 15.0011C29.7077 14.8173 29.8098 14.6514 29.9643 14.54C30.1188 14.4287 30.313 14.3808 30.5042 14.4071C30.6954 14.4333 30.8678 14.5315 30.9837 14.68L32.5856 16.7338C33.0589 17.3386 33.3137 18.0764 33.3137 18.8338V24.9C33.3137 25.55 33.1255 26.1872 32.77 26.7401C32.4146 27.293 31.906 27.7399 31.3012 28.0305C30.6965 28.3212 30.0195 28.4443 29.3461 28.3859C28.6727 28.3275 28.0296 28.09 27.4887 27.7ZM15.8385 12.3V17.9C15.8385 18.0857 15.9152 18.2637 16.0518 18.395C16.1883 18.5263 16.3736 18.6 16.5667 18.6H23.848C24.0411 18.6 24.2263 18.5263 24.3629 18.395C24.4994 18.2637 24.5761 18.0857 24.5761 17.9V12.3C24.5761 12.1144 24.4994 11.9363 24.3629 11.8051C24.2263 11.6738 24.0411 11.6 23.848 11.6H16.5667C16.3736 11.6 16.1883 11.6738 16.0518 11.8051C15.9152 11.9363 15.8385 12.1144 15.8385 12.3ZM17.2948 13H23.1199V17.2H17.2948V13Z" fill="#40C355"/>
</svg>
