<svg width="43" height="40" viewBox="0 0 43 40" fill="none" xmlns="http://www.w3.org/2000/svg">
<ellipse cx="21.4112" cy="20" rx="20.8038" ry="20" fill="#EEEEEE"/>
<path d="M16.5567 13V10.6667C16.5567 10.025 16.7946 9.47554 17.2703 9.01821C17.7452 8.56165 18.3164 8.33337 18.9838 8.33337H23.8381C24.5055 8.33337 25.0771 8.56165 25.5528 9.01821C26.0277 9.47554 26.2652 10.025 26.2652 10.6667V13H31.1194C31.7869 13 32.3584 13.2287 32.8342 13.686C33.3091 14.1426 33.5465 14.6917 33.5465 15.3334V21.1667H25.0516V18.8334H17.7703V21.1667H9.27539V15.3334C9.27539 14.6917 9.51325 14.1426 9.98896 13.686C10.4639 13.2287 11.035 13 11.7025 13H16.5567ZM18.9838 13H23.8381V10.6667H18.9838V13ZM20.1974 23.5V21.1667H22.6245V23.5H20.1974ZM9.27539 23.5H17.7703V25.8334H25.0516V23.5H33.5465V28.1667C33.5465 28.8084 33.3091 29.3579 32.8342 29.8152C32.3584 30.2718 31.7869 30.5 31.1194 30.5H11.7025C11.035 30.5 10.4639 30.2718 9.98896 29.8152C9.51325 29.3579 9.27539 28.8084 9.27539 28.1667V23.5Z" fill="#40C355"/>
</svg>
