<svg width="42" height="40" viewBox="0 0 42 40" fill="none" xmlns="http://www.w3.org/2000/svg">
<ellipse cx="21.0187" cy="20" rx="20.8038" ry="20" fill="#EEEEEE"/>
<path d="M25.8728 13.3266C25.8726 14.0286 25.5839 14.7021 25.0694 15.2003C23.885 16.3483 22.7357 17.5453 21.5064 18.6513C21.3691 18.7715 21.1891 18.8365 21.0035 18.8328C20.8179 18.8291 20.6408 18.757 20.5088 18.6315L16.9677 15.2015C16.4529 14.703 16.1641 14.029 16.1641 13.3266C16.1641 12.6242 16.4529 11.9503 16.9677 11.4518C17.2245 11.203 17.5301 11.0056 17.8666 10.8709C18.2032 10.7362 18.5642 10.6668 18.9288 10.6668C19.2934 10.6668 19.6544 10.7362 19.9909 10.8709C20.3275 11.0056 20.633 11.203 20.8899 11.4518L21.0185 11.5766L21.1472 11.4518C21.5327 11.0771 22.0255 10.8213 22.5628 10.7167C23.1001 10.6122 23.6576 10.6637 24.1644 10.8647C24.6711 11.0658 25.1042 11.4073 25.4084 11.8457C25.7126 12.2841 25.8743 12.7996 25.8728 13.3266V13.3266Z" stroke="#40C355" stroke-width="1.75" stroke-linejoin="round"/>
<path d="M28.2998 29.3333L32.9404 24.872C33.077 24.7409 33.1539 24.5629 33.154 24.3773V18.25C33.154 17.7859 32.9622 17.3408 32.6209 17.0126C32.2795 16.6844 31.8165 16.5 31.3337 16.5V16.5C30.8509 16.5 30.3879 16.6844 30.0465 17.0126C29.7051 17.3408 29.5134 17.7859 29.5134 18.25V23.5" stroke="#40C355" stroke-width="1.75" stroke-linecap="round" stroke-linejoin="round"/>
<path d="M28.2997 24.6667L29.3409 23.6657C29.3957 23.6131 29.439 23.5508 29.4686 23.4821C29.4982 23.4134 29.5134 23.3398 29.5133 23.2655C29.5131 23.1606 29.4826 23.0578 29.4252 22.9686C29.3677 22.8794 29.2856 22.8073 29.188 22.7603L28.6504 22.5025C28.195 22.2836 27.6794 22.2079 27.1768 22.2862C26.6741 22.3645 26.2098 22.5928 25.8495 22.9388L24.7634 23.983C24.3082 24.4205 24.0524 25.0139 24.0523 25.6327V29.3333M13.737 29.3333L9.0964 24.872C8.95981 24.7409 8.88298 24.5629 8.88281 24.3773V18.25C8.88281 17.7859 9.0746 17.3408 9.41598 17.0126C9.75736 16.6844 10.2204 16.5 10.7031 16.5V16.5C11.1859 16.5 11.6489 16.6844 11.9903 17.0126C12.3317 17.3408 12.5235 17.7859 12.5235 18.25V23.5" stroke="#40C355" stroke-width="1.75" stroke-linecap="round" stroke-linejoin="round"/>
<path d="M13.737 24.6666L12.6958 23.6656C12.6411 23.6131 12.5978 23.5507 12.5682 23.482C12.5386 23.4133 12.5234 23.3398 12.5234 23.2654V23.2654C12.5234 23.0519 12.6496 22.8571 12.8487 22.7603L13.3863 22.5024C13.8417 22.2835 14.3573 22.2078 14.86 22.2862C15.3626 22.3645 15.8269 22.5928 16.1872 22.9388L17.2733 23.9829C17.7285 24.4204 17.9843 25.0138 17.9844 25.6326V29.3333" stroke="#40C355" stroke-width="1.75" stroke-linecap="round" stroke-linejoin="round"/>
</svg>
