<svg width="42" height="40" viewBox="0 0 42 40" fill="none" xmlns="http://www.w3.org/2000/svg">
<ellipse cx="20.878" cy="20" rx="20.8038" ry="20" fill="#EEEEEE"/>
<path d="M30.5869 7.16663H11.17C10.2044 7.16663 9.27838 7.53537 8.59562 8.19175C7.91287 8.84813 7.5293 9.73837 7.5293 10.6666V29.3333C7.5293 30.2615 7.91287 31.1518 8.59562 31.8082C9.27838 32.4645 10.2044 32.8333 11.17 32.8333H30.5869C31.5524 32.8333 32.4785 32.4645 33.1612 31.8082C33.844 31.1518 34.2275 30.2615 34.2275 29.3333V10.6666C34.2275 9.73837 33.844 8.84813 33.1612 8.19175C32.4785 7.53537 31.5524 7.16663 30.5869 7.16663V7.16663ZM16.0242 30.5H11.17C10.8481 30.5 10.5394 30.377 10.3119 30.1583C10.0843 29.9395 9.95641 29.6427 9.95641 29.3333V27.9566C10.3456 28.0925 10.756 28.1635 11.17 28.1666H16.0242V30.5ZM16.0242 25.8333H11.17C10.8481 25.8333 10.5394 25.7104 10.3119 25.4916C10.0843 25.2728 9.95641 24.976 9.95641 24.6666V23.29C10.3456 23.4258 10.756 23.4968 11.17 23.5H16.0242V25.8333ZM16.0242 21.1666H11.17C10.8481 21.1666 10.5394 21.0437 10.3119 20.8249C10.0843 20.6061 9.95641 20.3094 9.95641 20V10.6666C9.95641 10.3572 10.0843 10.0605 10.3119 9.84167C10.5394 9.62288 10.8481 9.49996 11.17 9.49996H16.0242V21.1666ZM23.3055 30.5H18.4513V23.5H23.3055V30.5ZM23.3055 21.1666H18.4513V9.49996H23.3055V21.1666ZM31.8004 29.3333C31.8004 29.6427 31.6726 29.9395 31.445 30.1583C31.2174 30.377 30.9087 30.5 30.5869 30.5H25.7326V28.1666H30.5869C31.0009 28.1635 31.4113 28.0925 31.8004 27.9566V29.3333ZM31.8004 24.6666C31.8004 24.976 31.6726 25.2728 31.445 25.4916C31.2174 25.7104 30.9087 25.8333 30.5869 25.8333H25.7326V23.5H30.5869C31.0009 23.4968 31.4113 23.4258 31.8004 23.29V24.6666ZM31.8004 20C31.8004 20.3094 31.6726 20.6061 31.445 20.8249C31.2174 21.0437 30.9087 21.1666 30.5869 21.1666H25.7326V9.49996H30.5869C30.9087 9.49996 31.2174 9.62288 31.445 9.84167C31.6726 10.0605 31.8004 10.3572 31.8004 10.6666V20ZM28.1598 14.1666C27.9197 14.1666 27.6851 14.235 27.4855 14.3632C27.286 14.4914 27.1304 14.6736 27.0386 14.8868C26.9467 15.1 26.9227 15.3346 26.9695 15.5609C27.0163 15.7872 27.1319 15.9951 27.3016 16.1583C27.4714 16.3214 27.6876 16.4325 27.923 16.4775C28.1584 16.5226 28.4024 16.4995 28.6242 16.4112C28.8459 16.3228 29.0354 16.1733 29.1688 15.9815C29.3021 15.7896 29.3733 15.564 29.3733 15.3333C29.3733 15.0239 29.2455 14.7271 29.0179 14.5083C28.7903 14.2895 28.4816 14.1666 28.1598 14.1666ZM13.5971 16.5C13.8371 16.5 14.0717 16.4315 14.2713 16.3033C14.4709 16.1751 14.6264 15.9929 14.7183 15.7798C14.8101 15.5666 14.8341 15.332 14.7873 15.1057C14.7405 14.8794 14.6249 14.6715 14.4552 14.5083C14.2855 14.3452 14.0692 14.2341 13.8338 14.189C13.5984 14.144 13.3544 14.1671 13.1327 14.2554C12.9109 14.3437 12.7214 14.4933 12.588 14.6851C12.4547 14.877 12.3835 15.1025 12.3835 15.3333C12.3835 15.6427 12.5114 15.9395 12.739 16.1583C12.9666 16.377 13.2752 16.5 13.5971 16.5Z" fill="#40C355"/>
</svg>
