<svg width="26" height="23" viewBox="0 0 26 23" fill="none" xmlns="http://www.w3.org/2000/svg">
<path d="M22.75 4.20851H18.4336V3.13191C18.4336 2.25106 18.1204 1.50887 17.4941 0.905319C16.8678 0.301773 16.0977 0 15.1836 0H10.8164C9.90234 0 9.13216 0.301773 8.50586 0.905319C7.87956 1.50887 7.56641 2.25106 7.56641 3.13191V4.20851H3.25C2.33594 4.20851 1.56576 4.50213 0.939453 5.08936C0.313151 5.6766 0 6.42695 0 7.34043V11.5C0 12.1851 0.355469 12.5277 1.06641 12.5277V20.8957C1.06641 21.4504 1.28646 21.9397 1.72656 22.3638C2.16667 22.7879 2.67448 23 3.25 23H22.75C23.3255 23 23.8333 22.7879 24.2734 22.3638C24.7135 21.9397 24.9336 21.4504 24.9336 20.8957V12.5277C25.6445 12.5277 26 12.1851 26 11.5V7.34043C26 6.42695 25.6868 5.6766 25.0605 5.08936C24.4342 4.50213 23.6641 4.20851 22.75 4.20851ZM9.75 3.13191C9.75 2.8383 9.85156 2.59362 10.0547 2.39787C10.2578 2.20213 10.5117 2.10426 10.8164 2.10426H15.1836C15.4883 2.10426 15.7422 2.20213 15.9453 2.39787C16.1484 2.59362 16.25 2.8383 16.25 3.13191V4.20851H9.75V3.13191ZM3.25 20.8957V12.5277H9.75V15.6596C9.75 16.2468 9.96159 16.7443 10.3848 17.1521C10.8079 17.5599 11.3242 17.7638 11.9336 17.7638H14.0664C14.6758 17.7638 15.1921 17.5599 15.6152 17.1521C16.0384 16.7443 16.25 16.2468 16.25 15.6596V12.5277H22.75V20.8957H3.25ZM11.9336 15.6596V12.5277H14.0664V15.6596H11.9336ZM23.8164 10.4723H2.18359V7.34043C2.18359 6.62269 2.53906 6.26383 3.25 6.26383H22.75C23.4609 6.26383 23.8164 6.62269 23.8164 7.34043V10.4723Z" fill="url(#paint0_linear_1877_4240)"/>
<defs>
<linearGradient id="paint0_linear_1877_4240" x1="3.97222" y1="4.81985" x2="27.5273" y2="12.2672" gradientUnits="userSpaceOnUse">
<stop stop-color="#1873DA"/>
<stop offset="1" stop-color="#0CB3E6"/>
</linearGradient>
</defs>
</svg>
