<svg width="30" height="28" viewBox="0 0 30 28" fill="none" xmlns="http://www.w3.org/2000/svg">
<path d="M19.9448 8.46787C19.538 8.23862 19.1407 8.12268 18.8267 8.12268C18.5145 8.12268 18.2861 8.23862 18.2169 8.46787C18.0758 8.92681 18.6246 9.67056 19.4392 10.1295C19.847 10.3596 20.2438 10.4742 20.5569 10.4742C20.8691 10.4742 21.0976 10.3596 21.1686 10.1295C21.3083 9.67056 20.7604 8.92681 19.9448 8.46787M13.4963 21.0631C13.2028 20.962 12.7891 20.9419 12.324 21.0263C11.3956 21.1974 10.6202 21.7224 10.5915 22.1997C10.5769 22.4381 10.7526 22.6206 11.0475 22.7207C11.3419 22.8218 11.7561 22.8411 12.2198 22.7562C13.1486 22.5864 13.9245 22.0619 13.9532 21.5832C13.9678 21.3448 13.7921 21.1628 13.4963 21.0631M17.9889 20.0914C17.6949 19.9912 17.2799 19.9702 16.8166 20.0555C15.8887 20.2257 15.1137 20.7494 15.085 21.228C15.0713 21.4669 15.2466 21.6484 15.541 21.7491C15.8354 21.8497 16.25 21.8694 16.7133 21.7854C17.643 21.6147 18.4162 21.0906 18.4458 20.6124C18.4585 20.3736 18.2838 20.1924 17.9889 20.0914M22.2958 19.2452C22.0023 19.1451 21.5868 19.1249 21.1226 19.2098C20.1956 19.38 19.4197 19.9041 19.3919 20.3827C19.3783 20.6212 19.553 20.8032 19.8479 20.9038C20.1419 21.0044 20.5569 21.0241 21.0211 20.9392C21.9499 20.7691 22.724 20.2449 22.7527 19.7672C22.7664 19.5279 22.5907 19.3463 22.2958 19.2452M9.96941 11.4976C9.72366 11.6831 9.48474 12.0094 9.30999 12.4321C8.96322 13.2773 9.00964 14.1864 9.41329 14.4651C9.61626 14.6042 9.8702 14.5601 10.1159 14.3746C10.3631 14.1891 10.602 13.8627 10.7758 13.4405C11.1226 12.5957 11.0766 11.6852 10.6725 11.4066C10.47 11.2674 10.2156 11.3116 9.96941 11.4976M4.96349 10.0324C4.71637 10.2179 4.47746 10.5434 4.30361 10.966C3.95593 11.8108 4.00189 12.7212 4.40783 12.9991C4.60898 13.1386 4.86291 13.0936 5.11002 12.9081C5.35577 12.7226 5.59469 12.3966 5.76853 11.974C6.11621 11.1296 6.06979 10.2192 5.66522 9.94006C5.46317 9.80137 5.20923 9.84599 4.96349 10.0324" fill="url(#paint0_linear_1694_4504)"/>
<path d="M28.3152 15.6288L25.3322 6.98034C24.8816 5.67396 23.4645 4.31028 22.1047 3.87715L13.1077 1.00934C12.5461 0.830401 12.0415 0.831276 11.6528 1.00759C11.2323 1.1174 10.7517 1.29153 10.2593 1.51203C9.58628 1.81346 8.7562 2.27153 8.40397 2.67009C8.36435 2.70275 8.32595 2.73675 8.28883 2.77203L2.25488 8.57415C1.31695 9.4754 0.899638 11.1904 1.30512 12.4788L3.92731 20.8281C3.97509 20.9808 4.03425 21.1247 4.10343 21.2564C4.31459 21.8741 5.18016 22.74 5.44592 22.9955C5.7126 23.2514 6.61458 24.0857 7.25716 24.2883C7.39368 24.3535 7.54341 24.4103 7.70132 24.4563L16.3857 26.9771C16.7224 27.0756 17.0924 27.125 17.4861 27.125H17.4865C18.6147 27.125 19.7765 26.7085 20.4464 26.0645L26.4817 20.262C26.5199 20.2252 26.5545 20.1885 26.5882 20.1513C27.0032 19.8113 27.4797 19.0133 27.7924 18.3685C28.0231 17.8929 28.2042 17.4296 28.3184 17.0249C28.5023 16.6491 28.5014 16.1678 28.3152 15.6288M5.47778 21.7731C5.14693 21.3863 4.97173 21.0998 4.93669 20.9808L4.90301 20.9003C4.84879 20.7989 4.8046 20.6929 4.77104 20.5835L2.14793 12.2338C1.83893 11.2517 2.17296 9.8499 2.87743 9.17309L8.91275 3.37053C8.9437 3.34034 8.97646 3.31409 9.00787 3.28784L9.06612 3.22921C9.16896 3.10409 9.44793 2.90021 9.8484 2.67359C10.2302 2.78953 10.5551 3.13603 10.7313 3.69865L13.3535 12.0483C13.7102 13.1828 13.3343 14.7429 12.5138 15.5317L6.47942 21.3338C6.15085 21.6493 5.80226 21.7862 5.47778 21.7731M26.0052 19.5156L25.9429 19.5738C25.916 19.6035 25.8897 19.6337 25.8583 19.6635L19.8238 25.466C19.3187 25.9517 18.3789 26.2776 17.4865 26.2776H17.4861C17.1999 26.2805 16.9149 26.2431 16.6401 26.1665L7.95571 23.6456C7.84203 23.613 7.73173 23.5704 7.62623 23.5183L7.54204 23.4868C7.41871 23.4535 7.12063 23.2842 6.71834 22.9662C6.70423 22.6538 6.84576 22.3191 7.17479 22.0028L13.2087 16.2011C14.0297 15.4118 15.6516 15.0505 16.8321 15.3935L25.5165 17.9148C26.1026 18.085 26.4631 18.3978 26.5832 18.7648C26.3484 19.149 26.1354 19.4163 26.0052 19.5156ZM27.5134 16.6806L27.4788 16.7681C27.436 16.9243 27.3773 17.0975 27.3095 17.2769C27.0651 17.322 26.7648 17.2975 26.4166 17.1863L17.4201 14.3185C16.1968 13.9292 14.8762 12.6595 14.4721 11.484L11.489 2.83503C11.3738 2.50034 11.3479 2.21203 11.3948 1.97665C11.5805 1.91234 11.7593 1.8559 11.9213 1.81478L12.0137 1.78021C12.0924 1.74084 12.1939 1.72071 12.3154 1.72071C12.4665 1.72071 12.6399 1.75178 12.8315 1.81259L21.828 4.6804C22.9148 5.0269 24.1362 6.20203 24.4962 7.24634L27.4797 15.8948C27.5926 16.2247 27.6053 16.5104 27.5134 16.6806" fill="url(#paint1_linear_1694_4504)"/>
<defs>
<linearGradient id="paint0_linear_1694_4504" x1="6.92468" y1="11.2005" x2="23.4509" y2="17.0803" gradientUnits="userSpaceOnUse">
<stop stop-color="#1873DA"/>
<stop offset="1" stop-color="#0CB3E6"/>
</linearGradient>
<linearGradient id="paint1_linear_1694_4504" x1="5.32202" y1="6.37612" x2="30.4089" y2="13.6747" gradientUnits="userSpaceOnUse">
<stop stop-color="#1873DA"/>
<stop offset="1" stop-color="#0CB3E6"/>
</linearGradient>
</defs>
</svg>
