<svg width="43" height="40" viewBox="0 0 43 40" fill="none" xmlns="http://www.w3.org/2000/svg">
<ellipse cx="21.4484" cy="20" rx="20.8038" ry="20" fill="#EEEEEE"/>
<path d="M26.5913 14.4679C26.1845 14.2386 25.7872 14.1227 25.4732 14.1227C25.161 14.1227 24.9325 14.2386 24.8634 14.4679C24.7223 14.9268 25.2711 15.6706 26.0857 16.1295C26.4935 16.3596 26.8903 16.4742 27.2034 16.4742C27.5156 16.4742 27.7441 16.3596 27.815 16.1295C27.9548 15.6706 27.4068 14.9268 26.5913 14.4679M20.1428 27.0631C19.8493 26.962 19.4356 26.9419 18.9705 27.0263C18.0421 27.1974 17.2667 27.7224 17.238 28.1997C17.2234 28.4381 17.3991 28.6206 17.694 28.7207C17.9884 28.8218 18.4025 28.8411 18.8663 28.7562C19.7951 28.5864 20.571 28.0619 20.5997 27.5832C20.6143 27.3448 20.4386 27.1628 20.1428 27.0631M24.6354 26.0914C24.3414 25.9912 23.9264 25.9702 23.4631 26.0555C22.5352 26.2257 21.7602 26.7494 21.7315 27.228C21.7178 27.4669 21.893 27.6484 22.1875 27.7491C22.4819 27.8497 22.8965 27.8694 23.3598 27.7854C24.2895 27.6147 25.0627 27.0906 25.0923 26.6124C25.105 26.3736 24.9303 26.1924 24.6354 26.0914M28.9423 25.2452C28.6488 25.1451 28.2333 25.1249 27.7691 25.2098C26.8421 25.38 26.0662 25.9041 26.0384 26.3827C26.0247 26.6212 26.1995 26.8032 26.4944 26.9038C26.7884 27.0044 27.2034 27.0241 27.6676 26.9392C28.5964 26.7691 29.3705 26.2449 29.3992 25.7672C29.4128 25.5279 29.2372 25.3463 28.9423 25.2452M16.6159 17.4976C16.3701 17.6831 16.1312 18.0094 15.9565 18.4321C15.6097 19.2773 15.6561 20.1864 16.0598 20.4651C16.2627 20.6042 16.5167 20.5601 16.7624 20.3746C17.0095 20.1891 17.2485 19.8627 17.4223 19.4405C17.7691 18.5957 17.7231 17.6852 17.319 17.4066C17.1165 17.2674 16.8621 17.3116 16.6159 17.4976M11.61 16.0324C11.3629 16.2179 11.1239 16.5434 10.9501 16.966C10.6024 17.8108 10.6484 18.7212 11.0543 18.9991C11.2555 19.1386 11.5094 19.0936 11.7565 18.9081C12.0023 18.7226 12.2412 18.3966 12.415 17.974C12.7627 17.1296 12.7163 16.2192 12.3117 15.9401C12.1097 15.8014 11.8557 15.846 11.61 16.0324" fill="#40C355"/>
<path d="M34.9608 21.6288L31.9777 12.9803C31.5271 11.674 30.11 10.3103 28.7502 9.87715L19.7532 7.00934C19.1916 6.8304 18.687 6.83128 18.2983 7.00759C17.8778 7.1174 17.3973 7.29153 16.9049 7.51203C16.2318 7.81346 15.4017 8.27153 15.0495 8.67009C15.0099 8.70275 14.9715 8.73675 14.9343 8.77203L8.90039 14.5742C7.96246 15.4754 7.54515 17.1904 7.95063 18.4788L10.5728 26.8281C10.6206 26.9808 10.6798 27.1247 10.7489 27.2564C10.9601 27.8741 11.8257 28.74 12.0914 28.9955C12.3581 29.2514 13.2601 30.0857 13.9027 30.2883C14.0392 30.3535 14.1889 30.4103 14.3468 30.4563L23.0312 32.9771C23.368 33.0756 23.7379 33.125 24.1316 33.125H24.132C25.2602 33.125 26.422 32.7085 27.0919 32.0645L33.1272 26.262C33.1655 26.2252 33.2 26.1885 33.2337 26.1513C33.6487 25.8113 34.1252 25.0133 34.4379 24.3685C34.6686 23.8929 34.8497 23.4296 34.9639 23.0249C35.1478 22.6491 35.1469 22.1678 34.9608 21.6288M12.1233 27.7731C11.7924 27.3863 11.6172 27.0998 11.5822 26.9808L11.5485 26.9003C11.4943 26.7989 11.4501 26.6929 11.4165 26.5835L8.79344 18.2338C8.48444 17.2517 8.81847 15.8499 9.52294 15.1731L15.5583 9.37053C15.5892 9.34034 15.622 9.31409 15.6534 9.28784L15.7116 9.22921C15.8145 9.10409 16.0934 8.90021 16.4939 8.67359C16.8757 8.78953 17.2007 9.13603 17.3768 9.69865L19.999 18.0483C20.3558 19.1828 19.9799 20.7429 19.1593 21.5317L13.1249 27.3338C12.7964 27.6493 12.4478 27.7862 12.1233 27.7731M32.6508 25.5156L32.5884 25.5738C32.5616 25.6035 32.5352 25.6337 32.5038 25.6635L26.4693 31.466C25.9642 31.9517 25.0245 32.2776 24.132 32.2776H24.1316C23.8454 32.2805 23.5604 32.2431 23.2856 32.1665L14.6012 29.6456C14.4875 29.613 14.3772 29.5704 14.2717 29.5183L14.1875 29.4868C14.0642 29.4535 13.7661 29.2842 13.3638 28.9662C13.3497 28.6538 13.4913 28.3191 13.8203 28.0028L19.8543 22.2011C20.6752 21.4118 22.2971 21.0505 23.4776 21.3935L32.162 23.9148C32.7481 24.085 33.1086 24.3978 33.2287 24.7648C32.9939 25.149 32.7809 25.4163 32.6508 25.5156ZM34.1589 22.6806L34.1243 22.7681C34.0815 22.9243 34.0228 23.0975 33.955 23.2769C33.7106 23.322 33.4103 23.2975 33.0621 23.1863L24.0656 20.3185C22.8423 19.9292 21.5217 18.6595 21.1176 17.484L18.1345 8.83503C18.0194 8.50034 17.9934 8.21203 18.0403 7.97665C18.226 7.91234 18.4048 7.8559 18.5668 7.81478L18.6592 7.78021C18.7379 7.74084 18.8394 7.72071 18.9609 7.72071C19.112 7.72071 19.2854 7.75178 19.477 7.81259L28.4735 10.6804C29.5603 11.0269 30.7817 12.202 31.1417 13.2463L34.1252 21.8948C34.2381 22.2247 34.2508 22.5104 34.1589 22.6806" fill="#40C355"/>
</svg>
