<svg width="30" height="28" viewBox="0 0 30 28" fill="none" xmlns="http://www.w3.org/2000/svg">
<path d="M19.6579 7.32663C19.6578 8.02863 19.369 8.70212 18.8545 9.2003C17.6701 10.3483 16.5209 11.5453 15.2915 12.6513C15.1543 12.7715 14.9743 12.8365 14.7886 12.8328C14.603 12.8291 14.426 12.757 14.294 12.6315L10.7528 9.20146C10.2381 8.70297 9.94922 8.02904 9.94922 7.32663C9.94922 6.62422 10.2381 5.95029 10.7528 5.4518C11.0097 5.20304 11.3152 5.00561 11.6518 4.87089C11.9884 4.73616 12.3494 4.6668 12.7139 4.6668C13.0785 4.6668 13.4395 4.73616 13.7761 4.87089C14.1127 5.00561 14.4182 5.20304 14.6751 5.4518L14.8037 5.57663L14.9323 5.4518C15.3179 5.07714 15.8107 4.82125 16.348 4.71671C16.8853 4.61217 17.4428 4.6637 17.9495 4.86474C18.4563 5.06579 18.8893 5.40726 19.1936 5.84567C19.4978 6.28408 19.6594 6.79961 19.6579 7.32663V7.32663Z" stroke="url(#paint0_linear_1694_4487)" stroke-width="1.75" stroke-linejoin="round"/>
<path d="M22.084 23.3333L26.7246 18.872C26.8612 18.7409 26.938 18.5629 26.9382 18.3773V12.25C26.9382 11.7859 26.7464 11.3408 26.405 11.0126C26.0637 10.6844 25.6007 10.5 25.1179 10.5V10.5C24.6351 10.5 24.1721 10.6844 23.8307 11.0126C23.4893 11.3408 23.2975 11.7859 23.2975 12.25V17.5" stroke="url(#paint1_linear_1694_4487)" stroke-width="1.75" stroke-linecap="round" stroke-linejoin="round"/>
<path d="M22.0849 18.6667L23.1261 17.6657C23.1808 17.6131 23.2242 17.5508 23.2538 17.4821C23.2833 17.4134 23.2985 17.3398 23.2984 17.2655C23.2983 17.1606 23.2678 17.0578 23.2103 16.9686C23.1529 16.8794 23.0708 16.8073 22.9732 16.7603L22.4356 16.5025C21.9801 16.2836 21.4646 16.2079 20.9619 16.2862C20.4593 16.3645 19.9949 16.5928 19.6347 16.9388L18.5486 17.983C18.0934 18.4205 17.8376 19.0139 17.8374 19.6327V23.3333M7.52219 23.3333L2.88155 18.872C2.74496 18.7409 2.66814 18.5629 2.66797 18.3773V12.25C2.66797 11.7859 2.85975 11.3408 3.20113 11.0126C3.54251 10.6844 4.00552 10.5 4.4883 10.5V10.5C4.97109 10.5 5.4341 10.6844 5.77547 11.0126C6.11685 11.3408 6.30864 11.7859 6.30864 12.25V17.5" stroke="url(#paint2_linear_1694_4487)" stroke-width="1.75" stroke-linecap="round" stroke-linejoin="round"/>
<path d="M7.52215 18.6666L6.48092 17.6656C6.42627 17.6131 6.38292 17.5507 6.35335 17.482C6.32379 17.4133 6.30858 17.3398 6.30859 17.2654V17.2654C6.30859 17.0519 6.4348 16.8571 6.63383 16.7603L7.17143 16.5024C7.62689 16.2835 8.14244 16.2078 8.64511 16.2862C9.14777 16.3645 9.61208 16.5928 9.97232 16.9388L11.0585 17.9829C11.5137 18.4204 11.7695 19.0138 11.7696 19.6326V23.3333" stroke="url(#paint3_linear_1694_4487)" stroke-width="1.75" stroke-linecap="round" stroke-linejoin="round"/>
<defs>
<linearGradient id="paint0_linear_1694_4487" x1="11.4325" y1="6.37582" x2="20.1448" y2="9.27183" gradientUnits="userSpaceOnUse">
<stop stop-color="#1873DA"/>
<stop offset="1" stop-color="#0CB3E6"/>
</linearGradient>
<linearGradient id="paint1_linear_1694_4487" x1="22.8256" y1="13.1893" x2="27.6094" y2="13.6954" gradientUnits="userSpaceOnUse">
<stop stop-color="#1873DA"/>
<stop offset="1" stop-color="#0CB3E6"/>
</linearGradient>
<linearGradient id="paint2_linear_1694_4487" x1="5.81984" y1="13.1893" x2="22.9215" y2="20.8785" gradientUnits="userSpaceOnUse">
<stop stop-color="#1873DA"/>
<stop offset="1" stop-color="#0CB3E6"/>
</linearGradient>
<linearGradient id="paint3_linear_1694_4487" x1="7.14291" y1="17.7392" x2="12.3428" y2="18.8614" gradientUnits="userSpaceOnUse">
<stop stop-color="#1873DA"/>
<stop offset="1" stop-color="#0CB3E6"/>
</linearGradient>
</defs>
</svg>
