<svg width="43" height="40" viewBox="0 0 43 40" fill="none" xmlns="http://www.w3.org/2000/svg">
<ellipse cx="21.4855" cy="20" rx="20.8038" ry="20" fill="#EEEEEE"/>
<path fill-rule="evenodd" clip-rule="evenodd" d="M15.3099 27.5781C16.7953 28.8678 18.4227 29.933 20.26 30.773C21.2442 31.2221 22.4117 31.1813 23.3552 30.6639C24.9468 29.7912 26.332 28.7406 27.6712 27.5781C30.5097 25.1129 32.165 21.7208 32.2736 18.1432L32.4004 13.9718C32.415 13.4865 32.401 12.4166 32.401 12.4166C31.7635 12.32 31.1238 12.2371 30.4824 12.1681C28.4982 11.9395 26.5226 11.7126 24.789 10.6935L23.553 9.96723C23.0281 9.66159 22.4261 9.5 21.8125 9.5C21.1988 9.5 20.5968 9.66159 20.0719 9.96723L18.8881 10.6631C16.9057 11.8275 14.4902 12.048 12.1522 12.2615C11.6225 12.3099 11.0965 12.3583 10.5807 12.4166C10.5807 12.4166 10.5661 13.4929 10.5807 13.9852L10.7075 18.1432C10.8161 21.7208 12.4708 25.1129 15.3099 27.5781V27.5781ZM11.7882 13.4672C11.7882 13.6539 11.79 13.826 11.7942 13.9514L11.9205 18.1094C12.0194 21.3586 13.5224 24.4537 16.123 26.7124C17.5259 27.9298 19.0556 28.9302 20.7812 29.7189C21.0919 29.8598 21.4332 29.9272 21.7765 29.9153C22.1198 29.9034 22.4551 29.8127 22.7545 29.6506C24.2441 28.834 25.5572 27.8417 26.8581 26.7124C29.4588 24.4537 30.9618 21.3591 31.0607 18.1094L31.1875 13.9374C31.1911 13.8073 31.1936 13.6236 31.1936 13.4276C30.9096 13.3926 30.6208 13.3593 30.3259 13.3249L30.2931 13.3214C29.619 13.2487 28.9469 13.1602 28.2774 13.056C26.9158 12.8343 25.4911 12.4732 24.1561 11.6892L22.9201 10.9624C22.5858 10.7687 22.2028 10.6664 21.8125 10.6664C21.4221 10.6664 21.0391 10.7687 20.7048 10.9624L19.521 11.6583C18.1132 12.4849 16.5599 12.8769 15.063 13.1085C14.1346 13.252 13.1346 13.3436 12.1984 13.4299L11.7882 13.4678V13.4672Z" fill="#40C355"/>
<path fill-rule="evenodd" clip-rule="evenodd" d="M20.2705 25.25V14.75H22.6976V25.25H20.2705Z" fill="#40C355"/>
<path fill-rule="evenodd" clip-rule="evenodd" d="M26.9464 21.1666H16.0244V18.8333H26.9464V21.1666Z" fill="#40C355"/>
</svg>
