<svg width="30" height="28" viewBox="0 0 30 28" fill="none" xmlns="http://www.w3.org/2000/svg">
<path d="M18.5573 22.75C18.5573 24.6832 17.3826 26.25 15.3717 26.25H7.86286C5.85196 26.25 4.67728 24.6832 4.67728 22.75M19.3537 18.375C20.3589 18.375 21.1741 19.3545 21.1741 20.5625C21.1741 21.7705 20.3589 22.75 19.3537 22.75H3.88088C2.87572 22.75 2.06055 21.7705 2.06055 20.5625C2.06055 19.3545 2.87572 18.375 3.88088 18.375" stroke="url(#paint0_linear_1689_4406)" stroke-width="1.75" stroke-miterlimit="10" stroke-linecap="round"/>
<path d="M3.88088 15.0938V15.0817C3.88088 12.0739 6.44073 10.5 9.56943 10.5H13.6652C16.7939 10.5 19.3537 12.0859 19.3537 15.0938V15.0817M13.9496 6.125L14.3728 9.62336M19.8088 18.375H10.4403C10.3198 18.3751 10.2042 18.4211 10.1189 18.503L8.5927 19.9702C8.57157 19.9906 8.54648 20.0067 8.51885 20.0177C8.49123 20.0287 8.46162 20.0344 8.43172 20.0344C8.40182 20.0344 8.37221 20.0287 8.34458 20.0177C8.31696 20.0067 8.29187 19.9906 8.27073 19.9702L6.7445 18.503C6.65922 18.4211 6.54363 18.3751 6.42309 18.375H3.4258C3.06371 18.375 2.71645 18.2367 2.46042 17.9906C2.20439 17.7444 2.06055 17.4106 2.06055 17.0625V17.0625C2.06055 16.7144 2.20439 16.3806 2.46042 16.1344C2.71645 15.8883 3.06371 15.75 3.4258 15.75H19.8088C20.1709 15.75 20.5182 15.8883 20.7742 16.1344C21.0302 16.3806 21.1741 16.7144 21.1741 17.0625C21.1741 17.4106 21.0302 17.7444 20.7742 17.9906C20.5182 18.2367 20.1709 18.375 19.8088 18.375Z" stroke="url(#paint1_linear_1689_4406)" stroke-width="1.75" stroke-miterlimit="10" stroke-linecap="round"/>
<path d="M14.8027 26.25H22.7274C23.1867 26.25 23.629 26.0831 23.9656 25.7828C24.3022 25.4825 24.5084 25.071 24.5427 24.6307L26.578 6.125" stroke="url(#paint2_linear_1689_4406)" stroke-width="1.75" stroke-miterlimit="10" stroke-linecap="round"/>
<path d="M21.1738 6.125L22.084 2.625L24.7576 1.75" stroke="url(#paint3_linear_1689_4406)" stroke-width="1.75" stroke-linecap="round" stroke-linejoin="round"/>
<path d="M12.9824 6.125H27.5451" stroke="url(#paint4_linear_1689_4406)" stroke-width="1.75" stroke-miterlimit="10" stroke-linecap="round"/>
<defs>
<linearGradient id="paint0_linear_1689_4406" x1="4.98067" y1="20.0253" x2="18.0194" y2="28.8764" gradientUnits="userSpaceOnUse">
<stop stop-color="#1873DA"/>
<stop offset="1" stop-color="#0CB3E6"/>
</linearGradient>
<linearGradient id="paint1_linear_1689_4406" x1="4.98067" y1="9.03983" x2="21.5764" y2="15.4181" gradientUnits="userSpaceOnUse">
<stop stop-color="#1873DA"/>
<stop offset="1" stop-color="#0CB3E6"/>
</linearGradient>
<linearGradient id="paint2_linear_1689_4406" x1="16.6017" y1="10.3424" x2="28.0301" y2="12.2126" gradientUnits="userSpaceOnUse">
<stop stop-color="#1873DA"/>
<stop offset="1" stop-color="#0CB3E6"/>
</linearGradient>
<linearGradient id="paint3_linear_1689_4406" x1="21.7214" y1="2.66682" x2="25.1146" y2="3.44423" gradientUnits="userSpaceOnUse">
<stop stop-color="#1873DA"/>
<stop offset="1" stop-color="#0CB3E6"/>
</linearGradient>
<linearGradient id="paint4_linear_1689_4406" x1="15.2073" y1="6.33456" x2="16.0323" y2="9.695" gradientUnits="userSpaceOnUse">
<stop stop-color="#1873DA"/>
<stop offset="1" stop-color="#0CB3E6"/>
</linearGradient>
</defs>
</svg>
