<svg width="43" height="40" viewBox="0 0 43 40" fill="none" xmlns="http://www.w3.org/2000/svg">
<ellipse cx="21.6261" cy="20" rx="20.8038" ry="20" fill="#EEEEEE"/>
<path d="M25.3806 28.75C25.3806 30.6832 24.2059 32.25 22.195 32.25H14.6861C12.6752 32.25 11.5005 30.6832 11.5005 28.75M26.177 24.375C27.1821 24.375 27.9973 25.3545 27.9973 26.5625C27.9973 27.7705 27.1821 28.75 26.177 28.75H10.7041C9.69896 28.75 8.88379 27.7705 8.88379 26.5625C8.88379 25.3545 9.69896 24.375 10.7041 24.375" stroke="#40C355" stroke-width="1.75" stroke-miterlimit="10" stroke-linecap="round"/>
<path d="M10.7041 21.0938V21.0817C10.7041 18.0739 13.264 16.5 16.3927 16.5H20.4884C23.6171 16.5 26.177 18.0859 26.177 21.0938V21.0817M20.7729 12.125L21.1961 15.6234M26.6321 24.375H17.2636C17.1431 24.3751 17.0275 24.4211 16.9422 24.503L15.4159 25.9702C15.3948 25.9906 15.3697 26.0067 15.3421 26.0177C15.3145 26.0287 15.2849 26.0344 15.255 26.0344C15.2251 26.0344 15.1954 26.0287 15.1678 26.0177C15.1402 26.0067 15.1151 25.9906 15.094 25.9702L13.5677 24.503C13.4825 24.4211 13.3669 24.3751 13.2463 24.375H10.249C9.88695 24.375 9.5397 24.2367 9.28366 23.9906C9.02763 23.7444 8.88379 23.4106 8.88379 23.0625V23.0625C8.88379 22.7144 9.02763 22.3806 9.28366 22.1344C9.5397 21.8883 9.88695 21.75 10.249 21.75H26.6321C26.9941 21.75 27.3414 21.8883 27.5974 22.1344C27.8535 22.3806 27.9973 22.7144 27.9973 23.0625C27.9973 23.4106 27.8535 23.7444 27.5974 23.9906C27.3414 24.2367 26.9941 24.375 26.6321 24.375Z" stroke="#40C355" stroke-width="1.75" stroke-miterlimit="10" stroke-linecap="round"/>
<path d="M21.626 32.25H29.5507C30.0099 32.25 30.4522 32.0831 30.7888 31.7828C31.1255 31.4825 31.3316 31.071 31.3659 30.6307L33.4013 12.125" stroke="#40C355" stroke-width="1.75" stroke-miterlimit="10" stroke-linecap="round"/>
<path d="M27.9971 12.125L28.9072 8.625L31.5809 7.75" stroke="#40C355" stroke-width="1.75" stroke-linecap="round" stroke-linejoin="round"/>
<path d="M19.8057 12.125H34.3683" stroke="#40C355" stroke-width="1.75" stroke-miterlimit="10" stroke-linecap="round"/>
</svg>
