<svg width="25" height="25" viewBox="0 0 25 25" fill="none" xmlns="http://www.w3.org/2000/svg">
<g clip-path="url(#clip0_1898_4434)">
<path d="M9.37565 11.4583C11.6768 11.4583 13.5423 9.59285 13.5423 7.29167C13.5423 4.99048 11.6768 3.125 9.37565 3.125C7.07446 3.125 5.20898 4.99048 5.20898 7.29167C5.20898 9.59285 7.07446 11.4583 9.37565 11.4583Z" stroke="url(#paint0_linear_1898_4434)" stroke-width="2" stroke-linecap="round" stroke-linejoin="round"/>
<path d="M3.125 21.875V19.7917C3.125 18.6866 3.56399 17.6268 4.34539 16.8454C5.12679 16.064 6.1866 15.625 7.29167 15.625H11.4583C12.5634 15.625 13.6232 16.064 14.4046 16.8454C15.186 17.6268 15.625 18.6866 15.625 19.7917V21.875" stroke="url(#paint1_linear_1898_4434)" stroke-width="2" stroke-linecap="round" stroke-linejoin="round"/>
<path d="M16.666 3.26044C17.5623 3.48992 18.3567 4.01117 18.924 4.74201C19.4913 5.47285 19.7992 6.37172 19.7992 7.2969C19.7992 8.22207 19.4913 9.12094 18.924 9.85178C18.3567 10.5826 17.5623 11.1039 16.666 11.3334" stroke="url(#paint2_linear_1898_4434)" stroke-width="2" stroke-linecap="round" stroke-linejoin="round"/>
<path d="M21.875 21.875V19.7917C21.8697 18.872 21.5603 17.98 20.9951 17.2546C20.4298 16.5292 19.6404 16.0111 18.75 15.7812" stroke="url(#paint3_linear_1898_4434)" stroke-width="2" stroke-linecap="round" stroke-linejoin="round"/>
</g>
<defs>
<linearGradient id="paint0_linear_1898_4434" x1="6.48213" y1="4.87132" x2="14.184" y2="7.02544" gradientUnits="userSpaceOnUse">
<stop stop-color="#1873DA"/>
<stop offset="1" stop-color="#0CB3E6"/>
</linearGradient>
<linearGradient id="paint1_linear_1898_4434" x1="5.03472" y1="16.9347" x2="14.5226" y2="22.242" gradientUnits="userSpaceOnUse">
<stop stop-color="#1873DA"/>
<stop offset="1" stop-color="#0CB3E6"/>
</linearGradient>
<linearGradient id="paint2_linear_1898_4434" x1="17.1447" y1="4.95219" x2="20.2306" y2="5.28716" gradientUnits="userSpaceOnUse">
<stop stop-color="#1873DA"/>
<stop offset="1" stop-color="#0CB3E6"/>
</linearGradient>
<linearGradient id="paint3_linear_1898_4434" x1="19.2274" y1="17.0582" x2="22.2788" y2="17.4959" gradientUnits="userSpaceOnUse">
<stop stop-color="#1873DA"/>
<stop offset="1" stop-color="#0CB3E6"/>
</linearGradient>
<clipPath id="clip0_1898_4434">
<rect width="25" height="25" fill="white"/>
</clipPath>
</defs>
</svg>
