<svg width="43" height="40" viewBox="0 0 43 40" fill="none" xmlns="http://www.w3.org/2000/svg">
<ellipse cx="21.2335" cy="20" rx="20.8038" ry="20" fill="#EEEEEE"/>
<path d="M21.2152 33.4793C18.9114 33.478 16.615 33.2288 14.3689 32.7364C13.9899 32.6553 13.6514 32.4516 13.4099 32.1594C13.1683 31.8671 13.0384 31.5041 13.0419 31.1308V24.3286C8.75046 23.8158 7.58726 19.7024 7.50808 18.0531C7.49163 17.7156 7.56691 17.3798 7.7265 17.0787C7.8861 16.7777 8.12451 16.5218 8.41824 16.3363C9.88899 15.3965 11.4105 14.5322 12.9764 13.7472C13.6992 13.4554 14.469 13.2858 15.2518 13.2458C15.382 13.2389 15.5121 13.2595 15.6331 13.3062L15.9217 13.4164C19.4132 14.3995 23.1287 14.3709 26.6034 13.3342C26.719 13.2887 26.8428 13.2642 26.9675 13.2633H26.9893C27.8068 13.2813 28.6157 13.4291 29.383 13.7008C29.4221 13.7142 29.4602 13.7302 29.4968 13.7489C31.0386 14.5382 32.5368 15.4027 33.9839 16.3424C34.2757 16.5289 34.5122 16.7849 34.6701 17.0855C34.8281 17.3861 34.9021 17.721 34.885 18.0574C34.7649 20.1006 33.456 23.8324 29.4331 24.3242V31.1326C29.4341 31.5048 29.3027 31.8661 29.0606 32.1566C28.8186 32.447 28.4805 32.6492 28.1024 32.7294C25.8434 33.2264 23.5334 33.4776 21.2161 33.4793H21.2152ZM14.8622 31.0486C19.0597 31.9584 23.4155 31.956 27.6119 31.0416V23.4999C27.6119 23.2679 27.7077 23.0453 27.8784 22.8812C28.0491 22.7171 28.2806 22.6249 28.522 22.6249C32.7434 22.6249 33.0547 18.1511 33.0674 17.9603C33.0672 17.9281 33.0586 17.8965 33.0426 17.8683C33.0265 17.84 33.0035 17.816 32.9755 17.7984C31.5949 16.9027 30.167 16.0762 28.6977 15.3222C28.3742 15.2116 28.0409 15.1296 27.702 15.0772C27.6656 15.1323 27.6255 15.1866 27.5818 15.2382L22.6487 21.1007C22.4835 21.2971 22.276 21.4567 22.0405 21.5687C21.805 21.6807 21.5471 21.7423 21.2844 21.7494C21.0218 21.7564 20.7607 21.7087 20.5191 21.6096C20.2774 21.5105 20.0609 21.3622 19.8845 21.1751L14.3507 15.3038C14.3095 15.2602 14.2706 15.2147 14.2342 15.1673C14.065 15.2136 13.8985 15.2685 13.7354 15.3318C12.2551 16.0823 10.8152 16.9044 9.42125 17.7949C9.39035 17.8131 9.36515 17.8389 9.34832 17.8698C9.33149 17.9006 9.32367 17.9352 9.32568 17.9699C9.32568 18.0189 9.66517 22.6302 13.9493 22.6302C14.1907 22.6302 14.4222 22.7224 14.5929 22.8865C14.7636 23.0506 14.8595 23.2731 14.8595 23.5052L14.8622 31.0486ZM15.3646 15.0763L20.559 20.5871C20.6471 20.6806 20.7553 20.7547 20.8761 20.8043C20.9968 20.8538 21.1273 20.8777 21.2586 20.8742C21.3898 20.8707 21.5187 20.8399 21.6365 20.784C21.7542 20.7281 21.8579 20.6484 21.9406 20.5503L26.4414 15.2023C25.9653 15.3262 25.4848 15.4333 25.0006 15.5234L21.2325 19.9999L16.9574 15.4631C16.4213 15.3548 15.8899 15.2258 15.3646 15.0763V15.0763Z" fill="#40C355"/>
</svg>
