<svg width="30" height="28" viewBox="0 0 30 28" fill="none" xmlns="http://www.w3.org/2000/svg">
<path d="M14.5453 27.4793C12.2415 27.478 9.94512 27.2288 7.699 26.7364C7.32002 26.6553 6.98148 26.4516 6.73995 26.1594C6.49842 25.8671 6.36853 25.5041 6.37197 25.1308V18.3286C2.08053 17.8158 0.91734 13.7024 0.838156 12.0531C0.821704 11.7156 0.896984 11.3798 1.05658 11.0787C1.21618 10.7777 1.45458 10.5218 1.74832 10.3363C3.21907 9.39649 4.74057 8.53224 6.30644 7.7472C7.02925 7.45544 7.79903 7.28582 8.58186 7.24582C8.71204 7.23888 8.84223 7.25949 8.96322 7.3062L9.25174 7.41645C12.7433 8.39946 16.4588 8.37085 19.9335 7.3342C20.0491 7.2887 20.1728 7.2642 20.2975 7.26332H20.3194C21.1369 7.28131 21.9457 7.42914 22.7131 7.70082C22.7522 7.71416 22.7902 7.73025 22.8269 7.74895C24.3687 8.5382 25.8669 9.4027 27.314 10.3424C27.6058 10.5289 27.8422 10.7849 28.0002 11.0855C28.1581 11.3861 28.2322 11.721 28.2151 12.0574C28.0949 14.1006 26.7861 17.8324 22.7632 18.3242V25.1326C22.7642 25.5048 22.6328 25.8661 22.3907 26.1566C22.1487 26.447 21.8106 26.6492 21.4325 26.7294C19.1735 27.2264 16.8635 27.4776 14.5462 27.4793H14.5453ZM8.19231 25.0486C12.3898 25.9584 16.7456 25.956 20.9419 25.0416V17.4999C20.9419 17.2679 21.0378 17.0453 21.2085 16.8812C21.3792 16.7171 21.6107 16.6249 21.8521 16.6249C26.0735 16.6249 26.3847 12.1511 26.3975 11.9603C26.3972 11.9281 26.3887 11.8965 26.3727 11.8683C26.3566 11.84 26.3336 11.816 26.3056 11.7984C24.925 10.9027 23.4971 10.0762 22.0278 9.3222C21.7043 9.2116 21.371 9.1296 21.032 9.0772C20.9956 9.13232 20.9556 9.18657 20.9119 9.2382L15.9788 15.1007C15.8135 15.2971 15.6061 15.4567 15.3706 15.5687C15.135 15.6807 14.8771 15.7423 14.6145 15.7494C14.3519 15.7564 14.0908 15.7087 13.8491 15.6096C13.6075 15.5105 13.391 15.3622 13.2146 15.1751L7.68079 9.30382C7.63961 9.26023 7.60072 9.21467 7.56429 9.16732C7.39511 9.21358 7.22862 9.2685 7.06552 9.33182C5.58514 10.0823 4.14523 10.9044 2.75133 11.7949C2.72043 11.8131 2.69523 11.8389 2.6784 11.8698C2.66157 11.9006 2.65375 11.9352 2.65576 11.9699C2.65576 12.0189 2.99525 16.6302 7.27941 16.6302C7.5208 16.6302 7.75231 16.7224 7.923 16.8865C8.09369 17.0506 8.18958 17.2731 8.18958 17.5052L8.19231 25.0486ZM8.69472 9.07632L13.889 14.5871C13.9772 14.6806 14.0854 14.7547 14.2062 14.8043C14.3269 14.8538 14.4574 14.8777 14.5887 14.8742C14.7199 14.8707 14.8488 14.8399 14.9665 14.784C15.0843 14.7281 15.188 14.6484 15.2707 14.5503L19.7715 9.20232C19.2954 9.32619 18.8148 9.43331 18.3307 9.52345L14.5626 13.9999L10.2875 9.46307C9.75138 9.35484 9.22002 9.22582 8.69472 9.07632Z" fill="url(#paint0_linear_1694_4495)"/>
<defs>
<linearGradient id="paint0_linear_1694_4495" x1="5.01923" y1="11.4849" x2="28.8869" y2="20.5181" gradientUnits="userSpaceOnUse">
<stop stop-color="#1873DA"/>
<stop offset="1" stop-color="#0CB3E6"/>
</linearGradient>
</defs>
</svg>
