<svg width="43" height="40" viewBox="0 0 43 40" fill="none" xmlns="http://www.w3.org/2000/svg">
<ellipse cx="21.7003" cy="20" rx="20.8038" ry="20" fill="#EEEEEE"/>
<path d="M13.7638 32.25H28.4048C29.9666 32.25 31.2318 31.032 31.2318 29.5305V18.0995C33.793 17.9228 35.3021 15.1665 33.9168 13.0157L33.1249 11.7872C32.8142 11.3046 32.3804 10.9063 31.8646 10.63C31.3489 10.3538 30.7682 10.2088 30.1778 10.2087H28.0371V9.3635C28.0373 9.15169 27.9941 8.94192 27.91 8.74617C27.8259 8.55042 27.7024 8.37254 27.5467 8.22269C27.391 8.07284 27.2061 7.95396 27.0026 7.87285C26.799 7.79175 26.5809 7.75 26.3606 7.75C25.3052 7.75 24.2931 8.15304 23.5468 8.87046C22.8006 9.58788 22.3813 10.5609 22.3813 11.5755V16.7135C20.3862 16.9288 18.8681 17.8545 17.754 19.1425C16.5016 20.588 15.7699 22.4658 15.333 24.2595C14.9575 25.8777 14.7442 27.5267 14.6959 29.184C14.6777 29.695 14.6777 30.143 14.6813 30.5H13.7657C13.1831 30.5001 12.6132 30.3365 12.1261 30.0293C11.6389 29.7222 11.2558 29.2849 11.0237 28.7712C10.7917 28.2575 10.7208 27.6898 10.8198 27.1379C10.9189 26.586 11.1836 26.074 11.5813 25.6648L13.0321 24.1685C14.0539 23.115 14.6105 21.7214 14.5847 20.2811C14.5589 18.8409 13.9527 17.4665 12.8937 16.4475L11.4702 15.0772C11.3863 14.9937 11.2858 14.927 11.1748 14.8812C11.0637 14.8353 10.9443 14.8112 10.8235 14.8102C10.7026 14.8091 10.5828 14.8313 10.4709 14.8753C10.359 14.9193 10.2574 14.9842 10.172 15.0664C10.0865 15.1486 10.0189 15.2463 9.97316 15.3538C9.9274 15.4613 9.90437 15.5765 9.90542 15.6927C9.90647 15.8089 9.93158 15.9237 9.97928 16.0305C10.027 16.1372 10.0963 16.2338 10.1832 16.3145L11.6086 17.6848C12.3345 18.3828 12.75 19.3246 12.7677 20.3115C12.7854 21.2984 12.4037 22.2533 11.7032 22.975L10.2506 24.4713C9.61202 25.1299 9.18731 25.9535 9.02858 26.8409C8.86985 27.7283 8.984 28.6409 9.35703 29.4669C9.73006 30.2928 10.3457 30.9961 11.1285 31.4905C11.9114 31.9849 12.8272 32.2488 13.7638 32.25V32.25ZM26.2168 9.50525V11.0837C26.2168 11.3158 26.3127 11.5384 26.4833 11.7025C26.654 11.8666 26.8855 11.9587 27.1269 11.9587H30.1778C30.7476 11.9587 31.2773 12.2423 31.5795 12.7095L32.3713 13.938C32.5266 14.178 32.6122 14.4536 32.6194 14.7362C32.6265 15.0187 32.5548 15.298 32.4118 15.5449C32.2688 15.7919 32.0596 15.9975 31.806 16.1405C31.5524 16.2836 31.2637 16.3587 30.9697 16.3583H30.3234C30.082 16.3583 29.8505 16.4504 29.6799 16.6145C29.5092 16.7786 29.4133 17.0012 29.4133 17.2333V29.5305C29.4133 29.7876 29.307 30.0342 29.1179 30.216C28.9288 30.3979 28.6723 30.5 28.4048 30.5H27.3982V29.5305C27.3984 28.9312 27.2758 28.3378 27.0374 27.7841C26.7991 27.2303 26.4495 26.7272 26.0088 26.3034C25.5681 25.8795 25.0449 25.5433 24.469 25.3139C23.8931 25.0846 23.2759 24.9665 22.6525 24.9665H21.0543C20.8129 24.9665 20.5814 25.0587 20.4107 25.2228C20.24 25.3869 20.1441 25.6094 20.1441 25.8415C20.1441 26.0736 20.24 26.2961 20.4107 26.4602C20.5814 26.6243 20.8129 26.7165 21.0543 26.7165H22.6525C24.2672 26.7165 25.5778 27.9765 25.5778 29.5305V30.5H16.5016C16.4962 30.1622 16.498 29.7353 16.5144 29.2418C16.5581 27.9783 16.7055 26.3105 17.106 24.6568C17.5101 22.9908 18.1563 21.4105 19.152 20.2625C20.1186 19.146 21.4275 18.4162 23.2915 18.4162C23.5329 18.4162 23.7644 18.3241 23.9351 18.16C24.1058 17.9959 24.2016 17.7733 24.2016 17.5412V11.5755C24.2016 10.4765 25.0918 9.57525 26.2168 9.50525V9.50525Z" fill="#40C355"/>
</svg>
