<svg width="42" height="40" viewBox="0 0 42 40" fill="none" xmlns="http://www.w3.org/2000/svg">
<ellipse cx="20.9152" cy="20" rx="20.8038" ry="20" fill="#EEEEEE"/>
<path d="M20.9155 20C20.1955 20 19.4916 20.2053 18.8929 20.5899C18.2942 20.9745 17.8275 21.5211 17.552 22.1606C17.2764 22.8002 17.2043 23.5039 17.3448 24.1829C17.4853 24.8618 17.832 25.4854 18.3412 25.9749C18.8503 26.4644 19.499 26.7977 20.2053 26.9328C20.9115 27.0678 21.6435 26.9985 22.3088 26.7336C22.974 26.4687 23.5426 26.0201 23.9426 25.4445C24.3427 24.869 24.5562 24.1923 24.5562 23.5C24.5562 22.5718 24.1726 21.6815 23.4899 21.0252C22.8071 20.3688 21.8811 20 20.9155 20ZM20.9155 24.6667C20.6755 24.6667 20.4409 24.5983 20.2413 24.4701C20.0417 24.3419 19.8862 24.1597 19.7943 23.9465C19.7025 23.7333 19.6785 23.4987 19.7253 23.2724C19.7721 23.0461 19.8877 22.8382 20.0574 22.6751C20.2271 22.5119 20.4434 22.4008 20.6788 22.3558C20.9142 22.3108 21.1582 22.3339 21.3799 22.4222C21.6017 22.5105 21.7912 22.66 21.9246 22.8519C22.0579 23.0437 22.1291 23.2693 22.1291 23.5C22.1291 23.8095 22.0012 24.1062 21.7736 24.325C21.5461 24.5438 21.2374 24.6667 20.9155 24.6667ZM20.0539 17.3284C20.1693 17.4346 20.3054 17.5178 20.4544 17.5734C20.5996 17.6351 20.7567 17.667 20.9155 17.667C21.0743 17.667 21.2314 17.6351 21.3767 17.5734C21.5256 17.5178 21.6617 17.4346 21.7772 17.3284L24.5562 14.7034C24.7912 14.4775 24.9231 14.1711 24.9231 13.8517C24.9231 13.5323 24.7912 13.2259 24.5562 13C24.3212 12.7742 24.0026 12.6473 23.6703 12.6473C23.338 12.6473 23.0194 12.7742 22.7844 13L22.1291 13.6884V9.50004C22.1291 9.19062 22.0012 8.89388 21.7736 8.67508C21.5461 8.45629 21.2374 8.33337 20.9155 8.33337C20.5937 8.33337 20.285 8.45629 20.0574 8.67508C19.8298 8.89388 19.702 9.19062 19.702 9.50004V13.6884L19.0467 13C18.8117 12.7742 18.493 12.6473 18.1608 12.6473C17.8285 12.6473 17.5098 12.7742 17.2749 13C17.0399 13.2259 16.9079 13.5323 16.9079 13.8517C16.9079 14.1711 17.0399 14.4775 17.2749 14.7034L20.0539 17.3284ZM29.4104 23.5C29.4104 23.2693 29.3393 23.0437 29.2059 22.8519C29.0726 22.66 28.883 22.5105 28.6613 22.4222C28.4395 22.3339 28.1955 22.3108 27.9601 22.3558C27.7247 22.4008 27.5085 22.5119 27.3388 22.6751C27.169 22.8382 27.0535 23.0461 27.0066 23.2724C26.9598 23.4987 26.9838 23.7333 27.0757 23.9465C27.1675 24.1597 27.3231 24.3419 27.5227 24.4701C27.7222 24.5983 27.9568 24.6667 28.1969 24.6667C28.5187 24.6667 28.8274 24.5438 29.055 24.325C29.2826 24.1062 29.4104 23.8095 29.4104 23.5ZM30.624 15.3334H26.9833C26.6615 15.3334 26.3528 15.4563 26.1252 15.6751C25.8976 15.8939 25.7698 16.1906 25.7698 16.5C25.7698 16.8095 25.8976 17.1062 26.1252 17.325C26.3528 17.5438 26.6615 17.6667 26.9833 17.6667H30.624C30.9458 17.6667 31.2545 17.7896 31.4821 18.0084C31.7097 18.2272 31.8375 18.524 31.8375 18.8334V28.1667C31.8375 28.4761 31.7097 28.7729 31.4821 28.9917C31.2545 29.2105 30.9458 29.3334 30.624 29.3334H11.2071C10.8852 29.3334 10.5765 29.2105 10.349 28.9917C10.1214 28.7729 9.99352 28.4761 9.99352 28.1667V18.8334C9.99352 18.524 10.1214 18.2272 10.349 18.0084C10.5765 17.7896 10.8852 17.6667 11.2071 17.6667H14.8477C15.1696 17.6667 15.4783 17.5438 15.7059 17.325C15.9334 17.1062 16.0613 16.8095 16.0613 16.5C16.0613 16.1906 15.9334 15.8939 15.7059 15.6751C15.4783 15.4563 15.1696 15.3334 14.8477 15.3334H11.2071C10.2415 15.3334 9.31549 15.7021 8.63273 16.3585C7.94998 17.0149 7.56641 17.9051 7.56641 18.8334V28.1667C7.56641 29.095 7.94998 29.9852 8.63273 30.6416C9.31549 31.298 10.2415 31.6667 11.2071 31.6667H30.624C31.5895 31.6667 32.5156 31.298 33.1983 30.6416C33.8811 29.9852 34.2646 29.095 34.2646 28.1667V18.8334C34.2646 17.9051 33.8811 17.0149 33.1983 16.3585C32.5156 15.7021 31.5895 15.3334 30.624 15.3334ZM12.4206 23.5C12.4206 23.7308 12.4918 23.9563 12.6252 24.1482C12.7585 24.3401 12.948 24.4896 13.1698 24.5779C13.3915 24.6662 13.6355 24.6893 13.8709 24.6443C14.1063 24.5993 14.3226 24.4882 14.4923 24.325C14.662 24.1618 14.7776 23.954 14.8244 23.7276C14.8713 23.5013 14.8472 23.2668 14.7554 23.0536C14.6635 22.8404 14.508 22.6582 14.3084 22.53C14.1088 22.4018 13.8742 22.3334 13.6342 22.3334C13.3123 22.3334 13.0037 22.4563 12.7761 22.6751C12.5485 22.8939 12.4206 23.1906 12.4206 23.5Z" fill="#40C355"/>
</svg>
