<svg width="26" height="26" viewBox="0 0 26 26" fill="none" xmlns="http://www.w3.org/2000/svg">
<path d="M13.0007 13C12.3579 13 11.7295 13.1906 11.195 13.5477C10.6606 13.9049 10.244 14.4124 9.99804 15.0063C9.75206 15.6002 9.6877 16.2536 9.8131 16.8841C9.9385 17.5145 10.248 18.0936 10.7026 18.5481C11.1571 19.0026 11.7362 19.3122 12.3666 19.4376C12.997 19.563 13.6505 19.4986 14.2444 19.2526C14.8382 19.0066 15.3458 18.5901 15.7029 18.0556C16.06 17.5212 16.2506 16.8928 16.2506 16.25C16.2506 15.3881 15.9082 14.5614 15.2987 13.9519C14.6893 13.3424 13.8626 13 13.0007 13ZM13.0007 17.3334C12.7864 17.3334 12.5769 17.2698 12.3988 17.1508C12.2206 17.0317 12.0818 16.8625 11.9998 16.6646C11.9178 16.4666 11.8963 16.2488 11.9381 16.0387C11.9799 15.8285 12.0831 15.6355 12.2346 15.484C12.3861 15.3325 12.5792 15.2293 12.7893 15.1875C12.9994 15.1457 13.2173 15.1672 13.4152 15.2491C13.6132 15.3311 13.7824 15.47 13.9014 15.6482C14.0204 15.8263 14.084 16.0358 14.084 16.25C14.084 16.5373 13.9698 16.8129 13.7667 17.0161C13.5635 17.2192 13.288 17.3334 13.0007 17.3334ZM12.2315 10.5192C12.3345 10.6178 12.456 10.6951 12.589 10.7467C12.7187 10.804 12.8589 10.8336 13.0007 10.8336C13.1424 10.8336 13.2826 10.804 13.4123 10.7467C13.5453 10.6951 13.6668 10.6178 13.7698 10.5192L16.2506 8.08169C16.4604 7.87194 16.5782 7.58747 16.5782 7.29085C16.5782 6.99423 16.4604 6.70976 16.2506 6.50002C16.0409 6.29028 15.7564 6.17245 15.4598 6.17245C15.1632 6.17245 14.8787 6.29028 14.669 6.50002L14.084 7.13919V3.25002C14.084 2.9627 13.9698 2.68715 13.7667 2.48399C13.5635 2.28082 13.288 2.16669 13.0007 2.16669C12.7133 2.16669 12.4378 2.28082 12.2346 2.48399C12.0315 2.68715 11.9173 2.9627 11.9173 3.25002V7.13919L11.3323 6.50002C11.1226 6.29028 10.8381 6.17245 10.5415 6.17245C10.2449 6.17245 9.96039 6.29028 9.75065 6.50002C9.54091 6.70976 9.42308 6.99423 9.42308 7.29085C9.42308 7.58747 9.54091 7.87194 9.75065 8.08169L12.2315 10.5192ZM20.584 16.25C20.584 16.0358 20.5204 15.8263 20.4014 15.6482C20.2824 15.47 20.1132 15.3311 19.9152 15.2491C19.7173 15.1672 19.4994 15.1457 19.2893 15.1875C19.0792 15.2293 18.8861 15.3325 18.7346 15.484C18.5831 15.6355 18.4799 15.8285 18.4381 16.0387C18.3963 16.2488 18.4178 16.4666 18.4998 16.6646C18.5818 16.8625 18.7206 17.0317 18.8988 17.1508C19.0769 17.2698 19.2864 17.3334 19.5006 17.3334C19.788 17.3334 20.0635 17.2192 20.2667 17.0161C20.4698 16.8129 20.584 16.5373 20.584 16.25ZM21.6673 8.66669H18.4173C18.13 8.66669 17.8544 8.78082 17.6513 8.98399C17.4481 9.18715 17.334 9.4627 17.334 9.75002C17.334 10.0373 17.4481 10.3129 17.6513 10.5161C17.8544 10.7192 18.13 10.8334 18.4173 10.8334H21.6673C21.9546 10.8334 22.2302 10.9475 22.4333 11.1507C22.6365 11.3538 22.7506 11.6294 22.7506 11.9167V20.5834C22.7506 20.8707 22.6365 21.1462 22.4333 21.3494C22.2302 21.5525 21.9546 21.6667 21.6673 21.6667H4.33398C4.04667 21.6667 3.77112 21.5525 3.56795 21.3494C3.36479 21.1462 3.25065 20.8707 3.25065 20.5834V11.9167C3.25065 11.6294 3.36479 11.3538 3.56795 11.1507C3.77112 10.9475 4.04667 10.8334 4.33398 10.8334H7.58398C7.8713 10.8334 8.14685 10.7192 8.35002 10.5161C8.55318 10.3129 8.66732 10.0373 8.66732 9.75002C8.66732 9.4627 8.55318 9.18715 8.35002 8.98399C8.14685 8.78082 7.8713 8.66669 7.58398 8.66669H4.33398C3.47203 8.66669 2.64538 9.0091 2.03589 9.61859C1.42639 10.2281 1.08398 11.0547 1.08398 11.9167V20.5834C1.08398 21.4453 1.42639 22.272 2.03589 22.8814C2.64538 23.4909 3.47203 23.8334 4.33398 23.8334H21.6673C22.5293 23.8334 23.3559 23.4909 23.9654 22.8814C24.5749 22.272 24.9173 21.4453 24.9173 20.5834V11.9167C24.9173 11.0547 24.5749 10.2281 23.9654 9.61859C23.3559 9.0091 22.5293 8.66669 21.6673 8.66669ZM5.41732 16.25C5.41732 16.4643 5.48085 16.6737 5.59989 16.8519C5.71893 17.03 5.88812 17.1689 6.08608 17.2509C6.28403 17.3329 6.50185 17.3543 6.712 17.3125C6.92214 17.2707 7.11518 17.1676 7.26668 17.0161C7.41819 16.8645 7.52137 16.6715 7.56317 16.4614C7.60497 16.2512 7.58352 16.0334 7.50152 15.8354C7.41953 15.6375 7.28067 15.4683 7.10252 15.3493C6.92436 15.2302 6.71491 15.1667 6.50065 15.1667C6.21333 15.1667 5.93778 15.2808 5.73462 15.484C5.53145 15.6872 5.41732 15.9627 5.41732 16.25Z" fill="url(#paint0_linear_1876_4237)"/>
<defs>
<linearGradient id="paint0_linear_1876_4237" x1="4.72519" y1="6.70713" x2="26.4221" y2="13.3823" gradientUnits="userSpaceOnUse">
<stop stop-color="#1873DA"/>
<stop offset="1" stop-color="#0CB3E6"/>
</linearGradient>
</defs>
</svg>
