<svg width="30" height="28" viewBox="0 0 30 28" fill="none" xmlns="http://www.w3.org/2000/svg">
<path d="M21.174 19.1758L14.8028 22.6211L8.43166 19.1758V15.5357L6.61133 14.5635V20.1992L14.8028 24.6289L22.9943 20.1992V14.5635L21.174 15.5357V19.1758Z" fill="url(#paint0_linear_1694_4499)"/>
<path d="M14.8029 2.5144L2.06055 8.86625V10.383L14.8029 17.1883L25.7249 11.3552V16.1875H27.5452V8.86625L14.8029 2.5144ZM23.9046 10.3255L22.0842 11.2977L14.8029 15.1868L7.52155 11.2977L5.70122 10.3255L4.43955 9.65161L14.8029 4.48567L25.1662 9.65161L23.9046 10.3255Z" fill="url(#paint1_linear_1694_4499)"/>
<defs>
<linearGradient id="paint0_linear_1694_4499" x1="9.11429" y1="16.6728" x2="22.6378" y2="22.8291" gradientUnits="userSpaceOnUse">
<stop stop-color="#1873DA"/>
<stop offset="1" stop-color="#0CB3E6"/>
</linearGradient>
<linearGradient id="paint1_linear_1694_4499" x1="5.95404" y1="5.58945" x2="26.502" y2="15.5704" gradientUnits="userSpaceOnUse">
<stop stop-color="#1873DA"/>
<stop offset="1" stop-color="#0CB3E6"/>
</linearGradient>
</defs>
</svg>
