<svg width="27" height="26" viewBox="0 0 27 26" fill="none" xmlns="http://www.w3.org/2000/svg">
<path d="M11.7675 6.49999L12.375 5.86082V9.74999C12.375 10.0373 12.4935 10.3129 12.7045 10.516C12.9155 10.7192 13.2016 10.8333 13.5 10.8333C13.7984 10.8333 14.0845 10.7192 14.2955 10.516C14.5065 10.3129 14.625 10.0373 14.625 9.74999V5.86082L15.2325 6.45666C15.3346 6.56772 15.4593 6.65741 15.5989 6.72016C15.7385 6.78291 15.89 6.81738 16.044 6.82144C16.198 6.82551 16.3512 6.79907 16.4941 6.74378C16.6371 6.68848 16.7667 6.6055 16.875 6.49999C16.9804 6.39928 17.0641 6.27946 17.1213 6.14745C17.1784 6.01543 17.2078 5.87384 17.2078 5.73082C17.2078 5.58781 17.1784 5.44621 17.1213 5.3142C17.0641 5.18218 16.9804 5.06237 16.875 4.96166L14.2987 2.48082C14.1918 2.3822 14.0656 2.30488 13.9275 2.25332C13.6536 2.14497 13.3464 2.14497 13.0725 2.25332C12.9344 2.30488 12.8082 2.3822 12.7012 2.48082L10.125 4.91832C9.90719 5.12806 9.78483 5.41254 9.78483 5.70916C9.78483 6.00578 9.90719 6.29025 10.125 6.49999C10.3428 6.70973 10.6382 6.82756 10.9462 6.82756C11.2543 6.82756 11.5497 6.70973 11.7675 6.49999V6.49999ZM13.5 13C12.8325 13 12.18 13.1906 11.6249 13.5477C11.0699 13.9048 10.6374 14.4124 10.3819 15.0063C10.1265 15.6001 10.0596 16.2536 10.1898 16.884C10.3201 17.5145 10.6415 18.0936 11.1135 18.5481C11.5855 19.0026 12.1869 19.3121 12.8416 19.4375C13.4963 19.5629 14.1749 19.4986 14.7916 19.2526C15.4083 19.0066 15.9354 18.5901 16.3062 18.0556C16.6771 17.5211 16.875 16.8928 16.875 16.25C16.875 15.388 16.5194 14.5614 15.8865 13.9519C15.2535 13.3424 14.3951 13 13.5 13ZM13.5 17.3333C13.2775 17.3333 13.06 17.2698 12.875 17.1507C12.69 17.0317 12.5458 16.8625 12.4606 16.6646C12.3755 16.4666 12.3532 16.2488 12.3966 16.0386C12.44 15.8285 12.5472 15.6355 12.7045 15.484C12.8618 15.3325 13.0623 15.2293 13.2805 15.1875C13.4988 15.1457 13.725 15.1671 13.9305 15.2491C14.1361 15.3311 14.3118 15.47 14.4354 15.6481C14.559 15.8263 14.625 16.0357 14.625 16.25C14.625 16.5373 14.5065 16.8129 14.2955 17.016C14.0845 17.2192 13.7984 17.3333 13.5 17.3333ZM5.625 16.25C5.625 16.4643 5.69098 16.6737 5.8146 16.8519C5.93821 17.03 6.11391 17.1689 6.31948 17.2509C6.52505 17.3329 6.75125 17.3543 6.96948 17.3125C7.1877 17.2707 7.38816 17.1675 7.54549 17.016C7.70283 16.8645 7.80997 16.6715 7.85338 16.4613C7.89679 16.2512 7.87451 16.0334 7.78936 15.8354C7.70422 15.6375 7.56002 15.4683 7.37502 15.3492C7.19001 15.2302 6.9725 15.1667 6.75 15.1667C6.45163 15.1667 6.16548 15.2808 5.9545 15.484C5.74353 15.6871 5.625 15.9627 5.625 16.25ZM21.375 16.25C21.375 16.0357 21.309 15.8263 21.1854 15.6481C21.0618 15.47 20.8861 15.3311 20.6805 15.2491C20.4749 15.1671 20.2487 15.1457 20.0305 15.1875C19.8123 15.2293 19.6118 15.3325 19.4545 15.484C19.2972 15.6355 19.19 15.8285 19.1466 16.0386C19.1032 16.2488 19.1255 16.4666 19.2106 16.6646C19.2958 16.8625 19.44 17.0317 19.625 17.1507C19.81 17.2698 20.0275 17.3333 20.25 17.3333C20.5484 17.3333 20.8345 17.2192 21.0455 17.016C21.2565 16.8129 21.375 16.5373 21.375 16.25ZM22.5 8.66666H18C17.7016 8.66666 17.4155 8.78079 17.2045 8.98396C16.9935 9.18712 16.875 9.46267 16.875 9.74999C16.875 10.0373 16.9935 10.3129 17.2045 10.516C17.4155 10.7192 17.7016 10.8333 18 10.8333H22.5C22.7984 10.8333 23.0845 10.9475 23.2955 11.1506C23.5065 11.3538 23.625 11.6293 23.625 11.9167V20.5833C23.625 20.8706 23.5065 21.1462 23.2955 21.3494C23.0845 21.5525 22.7984 21.6667 22.5 21.6667H4.5C4.20163 21.6667 3.91548 21.5525 3.7045 21.3494C3.49353 21.1462 3.375 20.8706 3.375 20.5833V11.9167C3.375 11.6293 3.49353 11.3538 3.7045 11.1506C3.91548 10.9475 4.20163 10.8333 4.5 10.8333H9C9.29837 10.8333 9.58452 10.7192 9.79549 10.516C10.0065 10.3129 10.125 10.0373 10.125 9.74999C10.125 9.46267 10.0065 9.18712 9.79549 8.98396C9.58452 8.78079 9.29837 8.66666 9 8.66666H4.5C3.60489 8.66666 2.74645 9.00907 2.11351 9.61856C1.48058 10.2281 1.125 11.0547 1.125 11.9167V20.5833C1.125 21.4453 1.48058 22.2719 2.11351 22.8814C2.74645 23.4909 3.60489 23.8333 4.5 23.8333H22.5C23.3951 23.8333 24.2535 23.4909 24.8865 22.8814C25.5194 22.2719 25.875 21.4453 25.875 20.5833V11.9167C25.875 11.0547 25.5194 10.2281 24.8865 9.61856C24.2535 9.00907 23.3951 8.66666 22.5 8.66666Z" fill="url(#paint0_linear_1876_4228)"/>
<defs>
<linearGradient id="paint0_linear_1876_4228" x1="4.90625" y1="6.71137" x2="27.2849" y2="13.8628" gradientUnits="userSpaceOnUse">
<stop stop-color="#1873DA"/>
<stop offset="1" stop-color="#0CB3E6"/>
</linearGradient>
</defs>
</svg>
