<svg width="43" height="40" viewBox="0 0 43 40" fill="none" xmlns="http://www.w3.org/2000/svg">
<ellipse cx="21.3077" cy="20" rx="20.8038" ry="20" fill="#EEEEEE"/>
<path d="M19.4392 13L20.0945 12.3116V16.5C20.0945 16.8094 20.2224 17.1061 20.45 17.3249C20.6776 17.5437 20.9863 17.6666 21.3081 17.6666C21.63 17.6666 21.9386 17.5437 22.1662 17.3249C22.3938 17.1061 22.5217 16.8094 22.5217 16.5V12.3116L23.177 12.9533C23.2871 13.0729 23.4217 13.1695 23.5723 13.2371C23.7228 13.3046 23.8862 13.3418 24.0523 13.3461C24.2185 13.3505 24.3837 13.322 24.5379 13.2625C24.6921 13.203 24.832 13.1136 24.9488 13C25.0625 12.8915 25.1528 12.7625 25.2144 12.6203C25.276 12.4781 25.3077 12.3256 25.3077 12.1716C25.3077 12.0176 25.276 11.8651 25.2144 11.723C25.1528 11.5808 25.0625 11.4518 24.9488 11.3433L22.1697 8.67163C22.0543 8.56541 21.9182 8.48215 21.7693 8.42663C21.4738 8.30994 21.1424 8.30994 20.847 8.42663C20.698 8.48215 20.5619 8.56541 20.4465 8.67163L17.6674 11.2966C17.4325 11.5225 17.3005 11.8289 17.3005 12.1483C17.3005 12.4677 17.4325 12.7741 17.6674 13C17.9024 13.2258 18.2211 13.3527 18.5533 13.3527C18.8856 13.3527 19.2043 13.2258 19.4392 13V13ZM21.3081 20C20.588 20 19.8842 20.2052 19.2855 20.5898C18.6868 20.9744 18.2201 21.521 17.9446 22.1606C17.669 22.8001 17.5969 23.5038 17.7374 24.1828C17.8779 24.8617 18.2246 25.4853 18.7338 25.9748C19.2429 26.4643 19.8916 26.7977 20.5978 26.9327C21.3041 27.0678 22.0361 26.9984 22.7013 26.7335C23.3666 26.4686 23.9352 26.02 24.3352 25.4445C24.7353 24.8689 24.9488 24.1922 24.9488 23.5C24.9488 22.5717 24.5652 21.6815 23.8824 21.0251C23.1997 20.3687 22.2737 20 21.3081 20ZM21.3081 24.6666C21.0681 24.6666 20.8335 24.5982 20.6339 24.47C20.4343 24.3418 20.2788 24.1596 20.1869 23.9464C20.0951 23.7332 20.071 23.4987 20.1179 23.2724C20.1647 23.046 20.2803 22.8382 20.45 22.675C20.6197 22.5118 20.8359 22.4007 21.0714 22.3557C21.3068 22.3107 21.5508 22.3338 21.7725 22.4221C21.9943 22.5104 22.1838 22.6599 22.3171 22.8518C22.4505 23.0437 22.5217 23.2692 22.5217 23.5C22.5217 23.8094 22.3938 24.1061 22.1662 24.3249C21.9386 24.5437 21.63 24.6666 21.3081 24.6666ZM12.8132 23.5C12.8132 23.7307 12.8844 23.9563 13.0177 24.1481C13.1511 24.34 13.3406 24.4895 13.5624 24.5778C13.7841 24.6661 14.0281 24.6892 14.2635 24.6442C14.4989 24.5992 14.7152 24.4881 14.8849 24.3249C15.0546 24.1618 15.1702 23.9539 15.217 23.7276C15.2638 23.5013 15.2398 23.2667 15.1479 23.0535C15.0561 22.8403 14.9006 22.6581 14.701 22.5299C14.5014 22.4017 14.2668 22.3333 14.0268 22.3333C13.7049 22.3333 13.3962 22.4562 13.1687 22.675C12.9411 22.8938 12.8132 23.1905 12.8132 23.5ZM29.803 23.5C29.803 23.2692 29.7318 23.0437 29.5985 22.8518C29.4651 22.6599 29.2756 22.5104 29.0539 22.4221C28.8321 22.3338 28.5881 22.3107 28.3527 22.3557C28.1173 22.4007 27.901 22.5118 27.7313 22.675C27.5616 22.8382 27.446 23.046 27.3992 23.2724C27.3524 23.4987 27.3764 23.7332 27.4683 23.9464C27.5601 24.1596 27.7157 24.3418 27.9152 24.47C28.1148 24.5982 28.3494 24.6666 28.5894 24.6666C28.9113 24.6666 29.22 24.5437 29.4476 24.3249C29.6751 24.1061 29.803 23.8094 29.803 23.5ZM31.0166 15.3333H26.1623C25.8405 15.3333 25.5318 15.4562 25.3042 15.675C25.0766 15.8938 24.9488 16.1905 24.9488 16.5C24.9488 16.8094 25.0766 17.1061 25.3042 17.3249C25.5318 17.5437 25.8405 17.6666 26.1623 17.6666H31.0166C31.3384 17.6666 31.6471 17.7895 31.8747 18.0083C32.1023 18.2271 32.2301 18.5239 32.2301 18.8333V28.1666C32.2301 28.476 32.1023 28.7728 31.8747 28.9916C31.6471 29.2104 31.3384 29.3333 31.0166 29.3333H11.5997C11.2778 29.3333 10.9691 29.2104 10.7415 28.9916C10.514 28.7728 10.3861 28.476 10.3861 28.1666V18.8333C10.3861 18.5239 10.514 18.2271 10.7415 18.0083C10.9691 17.7895 11.2778 17.6666 11.5997 17.6666H16.4539C16.7757 17.6666 17.0844 17.5437 17.312 17.3249C17.5396 17.1061 17.6674 16.8094 17.6674 16.5C17.6674 16.1905 17.5396 15.8938 17.312 15.675C17.0844 15.4562 16.7757 15.3333 16.4539 15.3333H11.5997C10.6341 15.3333 9.70807 15.702 9.02531 16.3584C8.34255 17.0148 7.95898 17.905 7.95898 18.8333V28.1666C7.95898 29.0949 8.34255 29.9851 9.02531 30.6415C9.70807 31.2979 10.6341 31.6666 11.5997 31.6666H31.0166C31.9821 31.6666 32.9081 31.2979 33.5909 30.6415C34.2737 29.9851 34.6572 29.0949 34.6572 28.1666V18.8333C34.6572 17.905 34.2737 17.0148 33.5909 16.3584C32.9081 15.702 31.9821 15.3333 31.0166 15.3333Z" fill="#40C355"/>
</svg>
