<svg width="42" height="40" viewBox="0 0 42 40" fill="none" xmlns="http://www.w3.org/2000/svg">
<ellipse cx="21.0929" cy="20" rx="20.8038" ry="20" fill="#EEEEEE"/>
<path d="M22.9128 6.78162C23.4313 8.60967 23.7325 10.4883 23.8108 12.3816C23.854 12.9324 23.7794 13.4857 23.5917 14.0077C23.4041 14.5297 23.1073 15.0093 22.7197 15.4169C22.332 15.8246 21.8617 16.1516 21.3377 16.378C20.8137 16.6044 20.2471 16.7253 19.6726 16.7333C19.0842 16.7319 18.5021 16.6175 17.9603 16.3969C17.4185 16.1762 16.9281 15.8538 16.5177 15.4484C16.1074 15.043 15.7854 14.5629 15.5707 14.0363C15.356 13.5097 15.2529 12.9471 15.2674 12.3816L15.3038 11.9616C12.7642 14.8653 11.3756 18.5395 11.384 22.3333C11.3743 23.6675 11.6642 24.9881 12.2341 26.2047C12.804 27.4213 13.6404 28.5052 14.6861 29.3825C15.7319 30.2598 16.9623 30.9097 18.2933 31.2878C19.6243 31.6659 21.0245 31.7633 22.3983 31.5733L22.715 31.5266C23.1251 31.4628 23.5304 31.3735 23.9286 31.2594L23.954 31.2536C24.3599 31.1305 24.7568 30.9816 25.1421 30.8079C25.2234 30.7718 25.3035 30.7333 25.3848 30.6959C25.5948 30.5956 25.7926 30.4743 25.9953 30.3623L26.0074 30.3739C26.0511 30.3483 26.0887 30.3133 26.1324 30.2876C26.2343 30.2293 26.3435 30.1814 26.4431 30.1184L26.4685 30.1033L26.4722 30.101C26.7675 29.909 27.0515 29.7014 27.3229 29.4791L27.3556 29.4523C27.7584 29.1257 28.133 28.7683 28.4758 28.3836L28.4843 28.3755C28.6881 28.1445 28.8811 27.9041 29.0619 27.6556L29.0668 27.6509L29.0716 27.6439C29.3254 27.2893 29.5532 26.9182 29.7536 26.5333L29.841 26.3606C30.0322 25.9829 30.1964 25.5931 30.3325 25.1939L30.3446 25.1601C30.476 24.7543 30.5782 24.3404 30.6505 23.9211C30.6672 23.8261 30.6822 23.7308 30.6954 23.6353C30.762 23.2042 30.7973 22.7691 30.8009 22.3333C30.7835 19.3383 30.0655 16.3854 28.7 13.6934C27.3346 11.0014 25.3567 8.63914 22.9128 6.78162V6.78162ZM25.1725 25.1718C25.4465 24.4623 25.4954 23.6906 25.313 22.9544C25.1305 22.2182 24.725 21.5506 24.1477 21.0361C23.5704 20.5215 22.8473 20.1833 22.0699 20.064C21.2925 19.9448 20.4958 20.05 19.7806 20.3663L22.3861 22.8863L20.5682 24.6444L17.902 22.1244C17.5769 22.8105 17.469 23.5733 17.5916 24.318C17.7142 25.0626 18.062 25.7561 18.5917 26.312C19.1213 26.868 19.8094 27.2618 20.5702 27.4445C21.3311 27.6272 22.131 27.5907 22.8703 27.3394L24.2198 28.6449L24.1252 28.6881C23.8328 28.8213 23.5311 28.9348 23.2223 29.0276C22.9153 29.1142 22.6028 29.1812 22.2866 29.2283L22.0718 29.2609C21.7475 29.3064 21.4203 29.3306 21.0925 29.3333C19.162 29.3311 17.3113 28.5929 15.9463 27.2806C14.5813 25.9684 13.8134 24.1891 13.8111 22.3333C13.811 20.5612 14.1644 18.8055 14.8524 17.1614C15.4843 17.7703 16.236 18.2523 17.0635 18.5794C17.891 18.9065 18.7779 19.0721 19.6726 19.0666C21.2035 19.0715 22.6868 18.5553 23.8598 17.6096C25.0328 16.6638 25.8198 15.3495 26.0814 13.8994C27.5839 16.4757 28.3733 19.3797 28.3738 22.3333C28.3707 22.6586 28.344 22.9834 28.2937 23.3051L28.2585 23.5244C28.208 23.816 28.1391 24.1043 28.0522 24.3878L28.0195 24.4834C27.9203 24.774 27.8007 25.0578 27.6615 25.3328L27.5862 25.4821C27.441 25.7634 27.2751 26.0343 27.0899 26.2929L27.0705 26.3221C26.9734 26.4563 26.852 26.5671 26.7464 26.6943L25.1725 25.1718V25.1718Z" fill="#40C355"/>
</svg>
