<svg width="43" height="40" viewBox="0 0 43 40" fill="none" xmlns="http://www.w3.org/2000/svg">
<ellipse cx="21.2706" cy="20" rx="20.8038" ry="20" fill="#EEEEEE"/>
<path d="M31.671 18.4366C31.5011 17.97 31.04 17.6666 30.4939 17.6666H21.7684C21.2102 17.6666 20.7612 17.97 20.5791 18.4366L18.8438 23.2316L18.8559 29.66C18.8559 30.1033 19.2321 30.5 19.6932 30.5H20.4456C20.9068 30.5 21.2709 30.0566 21.2709 29.6133V28.1666H30.9793V29.6133C30.9793 30.0566 31.3555 30.5 31.8167 30.5H32.5569C33.0181 30.5 33.3943 30.1033 33.3943 29.66L33.4064 28.0616V23.2316L31.671 18.4366V18.4366ZM21.7684 18.8333H30.4939L31.7439 22.3333H20.5185L21.7684 18.8333V18.8333ZM21.2709 25.8333C20.6034 25.8333 20.0573 25.3083 20.0573 24.6666C20.0573 24.025 20.6034 23.5 21.2709 23.5C21.9383 23.5 22.4844 24.025 22.4844 24.6666C22.4844 25.3083 21.9383 25.8333 21.2709 25.8333ZM30.9793 25.8333C30.3119 25.8333 29.7658 25.3083 29.7658 24.6666C29.7658 24.025 30.3119 23.5 30.9793 23.5C31.6468 23.5 32.1929 24.025 32.1929 24.6666C32.1929 25.3083 31.6468 25.8333 30.9793 25.8333Z" fill="#40C355"/>
<path d="M23.6974 16.5H24.911V9.5H15.2025V15.3333H9.13477V30.5H10.3483V16.5H16.4161V10.6667H23.6974V16.5Z" fill="#40C355"/>
<path d="M12.7754 18.8334H15.2025V21.1667H12.7754V18.8334ZM18.8432 11.8334H21.2703V14.1667H18.8432V11.8334ZM12.7754 23.5H15.2025V25.8334H12.7754V23.5ZM12.7754 28.1667H15.2025V30.5H12.7754V28.1667Z" fill="#40C355"/>
</svg>
