<svg width="30" height="28" viewBox="0 0 30 28" fill="none" xmlns="http://www.w3.org/2000/svg">
<path d="M25.2023 12.4367C25.0324 11.97 24.5712 11.6667 24.0251 11.6667H15.2997C14.7414 11.6667 14.2924 11.97 14.1104 12.4367L12.375 17.2317L12.3871 23.66C12.3871 24.1034 12.7633 24.5 13.2245 24.5H13.9769C14.438 24.5 14.8021 24.0567 14.8021 23.6134V22.1667H24.5106V23.6134C24.5106 24.0567 24.8868 24.5 25.3479 24.5H26.0882C26.5493 24.5 26.9255 24.1034 26.9255 23.66L26.9377 22.0617V17.2317L25.2023 12.4367ZM15.2997 12.8334H24.0251L25.2751 16.3334H14.0497L15.2997 12.8334ZM14.8021 19.8334C14.1347 19.8334 13.5886 19.3084 13.5886 18.6667C13.5886 18.025 14.1347 17.5 14.8021 17.5C15.4696 17.5 16.0157 18.025 16.0157 18.6667C16.0157 19.3084 15.4696 19.8334 14.8021 19.8334ZM24.5106 19.8334C23.8431 19.8334 23.297 19.3084 23.297 18.6667C23.297 18.025 23.8431 17.5 24.5106 17.5C25.178 17.5 25.7241 18.025 25.7241 18.6667C25.7241 19.3084 25.178 19.8334 24.5106 19.8334Z" fill="url(#paint0_linear_1694_4509)"/>
<path d="M17.2306 10.5H18.4442V3.5H8.73575V9.33333H2.66797V24.5H3.88153V10.5H9.94931V4.66667H17.2306V10.5Z" fill="url(#paint1_linear_1694_4509)"/>
<path d="M6.30859 12.8333H8.73571V15.1666H6.30859V12.8333ZM12.3764 5.83331H14.8035V8.16665H12.3764V5.83331ZM6.30859 17.5H8.73571V19.8333H6.30859V17.5ZM6.30859 22.1666H8.73571V24.5H6.30859V22.1666Z" fill="url(#paint2_linear_1694_4509)"/>
<defs>
<linearGradient id="paint0_linear_1694_4509" x1="14.5999" y1="14.356" x2="27.7839" y2="18.5403" gradientUnits="userSpaceOnUse">
<stop stop-color="#1873DA"/>
<stop offset="1" stop-color="#0CB3E6"/>
</linearGradient>
<linearGradient id="paint1_linear_1694_4509" x1="5.07823" y1="7.90073" x2="20.1349" y2="11.0644" gradientUnits="userSpaceOnUse">
<stop stop-color="#1873DA"/>
<stop offset="1" stop-color="#0CB3E6"/>
</linearGradient>
<linearGradient id="paint2_linear_1694_4509" x1="7.60642" y1="9.74508" x2="15.9368" y2="10.8054" gradientUnits="userSpaceOnUse">
<stop stop-color="#1873DA"/>
<stop offset="1" stop-color="#0CB3E6"/>
</linearGradient>
</defs>
</svg>
